<svg width="100" height="100" viewBox="0 0 100 100" fill="none" xmlns="http://www.w3.org/2000/svg">
<path d="M62.1509 34.4569C61.4194 35.2834 58.9009 38.0569 58.1133 39.1119C53.0469 31.7439 52.0494 30.9619 48.0434 30.9619C41.0008 30.9989 33.6713 33.5524 27.7423 37.2404C23.8093 39.6904 23.4863 40.9169 23.0303 44.7169C22.6908 47.3606 22.5072 50.0219 22.4803 52.6874C22.6563 51.4214 30.6028 51.6839 30.6028 53.1434C30.6218 50.7399 30.8403 45.1349 30.9733 43.8619C31.4958 43.6719 32.1988 43.4154 32.9683 43.1494C34.377 41.907 35.7065 40.5776 36.9489 39.1689C37.4292 41.488 37.7215 43.8422 37.8228 46.2084C41.0823 44.6449 45.1348 44.4509 48.7193 45.1824C48.7668 45.0494 48.8239 44.9069 48.8694 44.7739C48.8903 42.9383 48.7824 41.1034 48.5464 39.2829C49.6014 40.9569 53.5409 46.3934 55.0464 47.8709C57.4964 50.2839 59.5963 50.0654 61.9623 47.3009C64.0059 44.936 65.9118 42.4556 67.6708 39.8719C67.9949 36.3064 64.4209 33.8639 62.1509 34.4569Z" fill="#B8FFD4"/>
<path d="M61.3725 83.0302C60.9565 82.4767 60.754 81.7922 60.8025 81.1017C59.0235 80.7262 57.204 80.5762 55.3875 80.6552C55.0535 82.7552 54.8515 84.7407 54.694 85.8052C55.131 84.3992 68.279 88.2942 68.564 90.0232C68.635 87.5292 63.273 85.5267 61.3725 83.0302Z" fill="#B8FFD4"/>
<path d="M84.9615 12.3031C82.729 10.1751 84.8665 8.04706 84.002 5.82406C86.5575 6.84056 88.2865 9.45306 87.137 11.9136L84.9615 12.3031Z" fill="#B8FFD4"/>
<path d="M18.746 78.1381C16.3395 78.6426 14.896 79.0756 13.863 79.3066C15.5255 79.3066 16.3995 92.8916 14.7465 94.0886C17.19 93.0606 17.0145 87.5621 17.9965 85.2726C18.14 84.8666 18.386 84.5046 18.7106 84.2216C19.0351 83.9386 19.4273 83.7446 19.849 83.6576C19.7851 81.7701 19.4125 79.9056 18.746 78.1381Z" fill="#B8FFD4"/>
<path d="M73.3804 24.7194C70.9959 22.7909 67.6329 24.8904 67.7944 27.4649C68.3104 27.4763 68.8194 27.586 69.2944 27.7879C69.5759 28.2504 69.7359 28.7765 69.7599 29.3174C70.0829 29.9064 70.3394 30.3909 70.5484 30.8089C73.7129 31.7684 76.5154 27.2489 73.3804 24.7194Z" fill="#B8FFD4"/>
<path d="M63.586 28.5858L62.836 27.7688L62.19 25.7738C59.7295 24.7193 55.59 26.8188 55.7585 30.9798C55.9085 34.5993 59.435 36.0718 61.2585 35.4828C61.648 35.0458 61.971 34.6828 62.1705 34.4568C62.384 34.3982 62.605 34.3726 62.826 34.3808C62.921 32.6043 62.655 31.6448 62.655 30.7423C62.655 30.3813 63.0825 29.7163 63.586 28.5858Z" fill="#B8FFD4"/>
<path d="M81.2365 21.4434L56.0235 15.4504C54.3705 15.1464 53.411 15.8399 52.936 17.0749L51.083 21.8464C51.6175 26.1214 51.5665 28.0839 51.169 28.5699C50.827 28.9879 50.0385 29.1874 49.0885 29.0449C49.1854 29.7065 49.3154 30.3628 49.478 31.0114C49.8296 31.0412 50.179 31.0952 50.523 31.1729L55.7005 17.6814L79.935 23.5619L72.297 45.3929L65.2385 43.2649C64.697 43.9679 64.108 44.7184 63.462 45.5069L72.3445 48.1764C73.703 48.5849 75.014 48.1479 75.6125 46.5044L83.127 24.8919C83.64 23.4099 83.488 21.9944 81.2365 21.4434ZM78.4625 35.4844C78.4315 35.5966 78.378 35.7013 78.305 35.792C78.232 35.8827 78.141 35.9576 78.0385 36.012C77.9355 36.0664 77.8225 36.0992 77.7065 36.1084C77.5905 36.1176 77.4735 36.103 77.3635 36.0655C77.253 36.028 77.152 35.9683 77.0655 35.8902C76.979 35.8121 76.91 35.7171 76.8615 35.6112C76.813 35.5053 76.787 35.3906 76.7845 35.2742C76.782 35.1579 76.8035 35.0422 76.8475 34.9344C76.8785 34.8222 76.932 34.7175 77.005 34.6268C77.078 34.536 77.1685 34.4612 77.2715 34.4067C77.3745 34.3523 77.4875 34.3195 77.6035 34.3103C77.7195 34.3011 77.8365 34.3157 77.9465 34.3533C78.0565 34.3908 78.158 34.4505 78.2445 34.5286C78.3305 34.6067 78.4 34.7016 78.4485 34.8075C78.497 34.9134 78.523 35.0281 78.5255 35.1445C78.528 35.2609 78.5065 35.3766 78.4625 35.4844Z" fill="#E9E9E9"/>
<path d="M64.6877 29.7846L66.7967 32.0931C65.7042 32.5681 64.5072 31.6006 64.6877 29.7846Z" fill="#E9E9E9"/>
<path d="M67.6893 29.0626C67.4233 28.9961 66.8343 28.8916 66.1393 28.7871L67.6893 30.4781C67.7273 30.007 67.7273 29.5336 67.6893 29.0626Z" fill="#E9E9E9"/>
<path d="M60.8115 81.0936C62.4455 81.4736 62.8825 81.9866 62.8825 82.3666C62.8825 82.8511 62.0825 83.0221 61.3825 83.0221C60.969 82.4676 60.7665 81.7841 60.8115 81.0936Z" fill="#E9E9E9"/>
<path d="M55.3872 80.6572C55.2637 81.4932 55.1592 82.1867 55.0832 82.7852C53.9622 82.5667 53.2462 82.0912 53.2877 81.5692C53.3227 81.1317 53.9147 80.7617 55.3872 80.6572Z" fill="#E9E9E9"/>
<path d="M17.1397 76.5338C17.5777 76.4228 18.1847 76.8093 18.7452 78.1488C17.7452 78.3673 16.9877 78.5488 16.3702 78.6988C16.2182 77.5313 16.6372 76.6608 17.1397 76.5338Z" fill="#E9E9E9"/>
<path d="M19.8475 83.6594C19.4277 83.7509 19.0379 83.9469 18.7141 84.2294C18.3902 84.5114 18.1429 84.8709 17.995 85.2744C18.195 85.8999 18.7295 86.5614 19.2185 86.2124C19.575 85.9584 19.8815 85.1679 19.8475 83.6594Z" fill="#E9E9E9"/>
<path d="M46.3241 52.7649C46.1531 55.1874 46.2766 60.9539 46.3241 62.9869C45.3741 62.6829 44.5381 62.4264 43.9111 62.2554C44.8421 58.4269 45.5831 55.4154 46.3241 52.7649Z" fill="#E9E9E9"/>
<path d="M22.4877 52.67C22.4307 53.088 23.2097 53.525 24.3377 53.582C24.4393 53.5045 24.5208 53.4035 24.5752 53.2875C24.6625 52.8305 24.6944 52.365 24.6702 51.9005C23.1622 52.005 22.5352 52.3375 22.4877 52.67Z" fill="#E9E9E9"/>
<path d="M30.6004 53.038C30.5169 52.7215 30.0179 52.3815 28.9414 52.166C28.9699 52.584 28.9889 53.192 29.0174 53.866C29.6464 53.8465 30.7504 53.607 30.6004 53.038Z" fill="#E9E9E9"/>
<path d="M36.9566 39.1613C37.1276 39.9783 37.2891 40.8808 37.4221 41.8113C35.9219 42.1802 34.4412 42.6241 32.9856 43.1413C34.3866 41.8941 35.7126 40.5652 36.9566 39.1613Z" fill="#E9E9E9"/>
<path d="M50.1142 41.5737C49.6677 42.6947 49.2592 43.7492 48.8792 44.7737C48.8999 42.938 48.7919 41.1032 48.5562 39.2827C48.8222 39.7117 49.4002 40.5667 50.1142 41.5737Z" fill="#E9E9E9"/>
<path d="M62.5623 87.0113C58.9238 85.8433 54.9358 85.0428 54.6933 85.8063C54.3723 86.8283 58.0168 88.3103 61.6498 89.3198C64.7998 90.1958 67.9438 90.7168 68.4823 90.2748C69.5188 89.4248 63.8503 87.4248 62.5623 87.0113Z" fill="#E9E9E9"/>
<path d="M15.5413 86.0505C15.3083 82.5825 14.6778 79.3185 13.8528 79.3185C12.8493 79.314 12.5028 82.649 12.6233 86.16C12.7578 90.06 13.4688 94.1765 14.4988 94.1765C15.9503 93.853 15.6403 87.5215 15.5413 86.0505Z" fill="#E9E9E9"/>
<path d="M86.7557 54.7689C84.2507 54.2784 81.6577 54.5194 79.2867 55.4639C76.9152 56.4089 74.8662 58.0164 73.3852 60.0949C71.9037 62.1739 71.0527 64.6354 70.9337 67.1849C70.8152 69.7344 71.4332 72.2644 72.7147 74.4719C79.7922 70.0449 84.6752 62.9389 86.7557 54.7689Z" fill="#E9E9E9"/>
<path d="M49.0128 27.7419C50.0008 28.4544 50.9128 28.9199 51.2168 28.4734C50.9223 29.0624 50.3048 29.2334 49.1078 29.0434C49.0603 28.6064 49.0318 28.1694 49.0128 27.7419Z" fill="#E9E9E9"/>
<path d="M52.3372 17.7289C51.8052 17.0544 50.8837 16.6459 49.4682 16.7979C50.0952 11.6204 42.7137 10.8794 42.4287 15.2114C38.6572 12.2759 32.5962 16.8264 36.8617 19.9614C34.5437 20.1039 33.7742 23.1724 36.2537 23.1724C30.5347 27.0769 35.0377 35.7694 47.4067 27.5224C48.0734 26.9495 48.6726 26.3025 49.1927 25.5939C48.1382 24.1594 49.3162 23.2569 49.7532 24.2829C50.0002 24.8719 50.2757 23.9694 50.2757 23.2379C50.6237 23.2585 50.9637 23.349 51.2757 23.5039C52.7002 22.6784 53.6502 19.3819 52.3372 17.7289Z" fill="#E9E9E9"/>
<path d="M84.9612 12.3031C82.7287 10.1751 84.8662 8.04706 84.0017 5.82406C86.5572 6.84056 88.2862 9.45306 87.1367 11.9136L84.9612 12.3031Z" stroke="black" stroke-width="0.564931" stroke-linecap="round" stroke-linejoin="round"/>
<path d="M49.4779 31.0105C49.8295 31.0403 50.1784 31.0943 50.5229 31.172L55.7004 17.6805L79.9349 23.561L72.2969 45.392L65.2384 43.264C64.6969 43.967 64.1079 44.7175 63.4619 45.506L72.3444 48.1755C73.7029 48.584 75.0139 48.147 75.6124 46.5035L83.1269 24.891C83.6399 23.409 83.4879 21.9935 81.2364 21.4425L56.0234 15.4495C54.3704 15.1455 53.4109 15.839 52.9359 17.074L52.5519 18.0622L49.4779 31.0105ZM78.4624 35.4835C78.4314 35.5957 78.3779 35.7004 78.3049 35.7911C78.2319 35.8818 78.1409 35.9567 78.0384 36.0111C77.9354 36.0655 77.8224 36.0983 77.7064 36.1075C77.5904 36.1167 77.4734 36.1021 77.3634 36.0646C77.2529 36.0271 77.1519 35.9674 77.0654 35.8893C76.9789 35.8112 76.9099 35.7162 76.8614 35.6103C76.8129 35.5044 76.7869 35.3897 76.7844 35.2733C76.7819 35.157 76.8034 35.0413 76.8474 34.9335C76.8784 34.8213 76.9319 34.7166 77.0049 34.6259C77.0779 34.5351 77.1684 34.4603 77.2714 34.4058C77.3744 34.3514 77.4874 34.3186 77.6034 34.3094C77.7194 34.3002 77.8364 34.3148 77.9464 34.3524C78.0564 34.3899 78.1579 34.4496 78.2444 34.5277C78.3304 34.6058 78.3999 34.7007 78.4484 34.8066C78.4969 34.9125 78.5229 35.0272 78.5254 35.1436C78.5279 35.26 78.5064 35.3757 78.4624 35.4835Z" stroke="black" stroke-width="0.564931" stroke-linejoin="round"/>
<path d="M3.84985 75.6685L10.1579 66.6625" stroke="black" stroke-width="0.564931" stroke-linecap="round" stroke-linejoin="round"/>
<path d="M2.50067 68.011L11.5067 74.319" stroke="black" stroke-width="0.564931" stroke-linecap="round" stroke-linejoin="round"/>
<path d="M63.8618 55.0053L69.9418 53.9318" stroke="black" stroke-width="0.564931" stroke-linecap="round" stroke-linejoin="round"/>
<path d="M66.3689 51.4338L67.4329 57.5138" stroke="black" stroke-width="0.564931" stroke-linecap="round" stroke-linejoin="round"/>
<path d="M84.2104 81.1026C91.5504 81.1026 97.5009 75.1521 97.5009 67.8121C97.5009 60.4721 91.5504 54.5216 84.2104 54.5216C76.8704 54.5216 70.9199 60.4721 70.9199 67.8121C70.9199 75.1521 76.8704 81.1026 84.2104 81.1026Z" stroke="black" stroke-width="0.564931" stroke-linecap="round" stroke-linejoin="round"/>
<path d="M16.4177 39.7488C19.4188 39.7488 21.8517 37.3159 21.8517 34.3148C21.8517 31.3137 19.4188 28.8808 16.4177 28.8808C13.4166 28.8808 10.9837 31.3137 10.9837 34.3148C10.9837 37.3159 13.4166 39.7488 16.4177 39.7488Z" stroke="black" stroke-width="0.564931" stroke-linecap="round" stroke-linejoin="round"/>
<path d="M39.9302 78.2992C44.3285 79.1832 48.8119 79.5717 53.2967 79.4582" stroke="black" stroke-width="0.564931" stroke-linecap="round" stroke-linejoin="round"/>
<path d="M27.7419 74.1659C17.4921 69.1179 9.62046 60.2644 5.80636 49.4944C-2.23064 27.4544 11.4789 17.6914 24.3789 21.5264C31.0949 23.5229 34.3539 21.7734 34.7719 15.8264C35.1614 10.2879 39.0944 6.1339 50.8364 6.8489C61.0114 7.46915 72.6589 13.444 79.0694 20.9128M62.8824 78.4894C84.8444 73.6169 94.7659 47.7474 82.6804 26.1985L62.8824 78.4894Z" stroke="black" stroke-width="0.564931" stroke-linecap="round" stroke-linejoin="round"/>
<path d="M19.1733 10.0235L6.62329 12.237C6.13834 12.3306 5.70964 12.6112 5.42979 13.0182C5.14989 13.4251 5.04124 13.9258 5.12729 14.4122C5.21334 14.8985 5.48719 15.3315 5.88969 15.6177C6.29224 15.904 6.79114 16.0204 7.27879 15.942L19.8288 13.7285L23.4008 11.1825L19.1733 10.0235Z" stroke="black" stroke-width="0.564931" stroke-linecap="round" stroke-linejoin="round"/>
<path d="M7.21289 12.1327L7.86839 15.8377" stroke="black" stroke-width="0.564931" stroke-linecap="round" stroke-linejoin="round"/>
<path d="M9.34161 11.7621L9.98761 15.4671" stroke="black" stroke-width="0.564931" stroke-linecap="round" stroke-linejoin="round"/>
<path d="M19.1732 10.0235L19.8287 13.7285" stroke="black" stroke-width="0.564931" stroke-linecap="round" stroke-linejoin="round"/>
<path d="M84.9606 12.3032C84.9986 13.984 85.1541 15.6601 85.4261 17.3192C86.2891 22.2232 87.8866 27.3892 88.7131 27.2467C89.5396 27.1042 89.2786 21.6967 88.4091 16.7967C88.1011 15.144 87.6756 13.5154 87.1361 11.9232L84.9606 12.3032Z" stroke="black" stroke-width="0.564931" stroke-linecap="round" stroke-linejoin="round"/>
<path d="M85.3214 16.7117L88.3044 16.1892" stroke="black" stroke-width="0.564931" stroke-linecap="round" stroke-linejoin="round"/>
<path d="M24.3416 53.5904C23.2111 53.5334 22.4341 53.0964 22.4916 52.6784C22.5506 52.2319 23.6221 51.7959 26.3771 51.8784C29.4931 51.9744 30.6466 52.6194 30.6236 53.1419C30.6076 53.5124 29.9396 53.8259 29.0276 53.8544" stroke="black" stroke-width="0.564931" stroke-linecap="round" stroke-linejoin="round"/>
<path d="M58.1232 39.1026C58.9117 38.0481 61.4292 35.2836 62.1607 34.4476C63.9372 33.9631 67.9842 35.7871 67.6707 39.8721C65.9087 42.453 64.0022 44.9326 61.9612 47.2991C59.5897 50.0581 57.5072 50.2901 55.0452 47.8691C53.4597 46.3101 49.4117 40.6691 48.5567 39.2811C48.7927 41.1016 48.9007 42.9364 48.8797 44.7721" stroke="black" stroke-width="0.564931" stroke-linecap="round" stroke-linejoin="round"/>
<path d="M59.0922 40.5275C53.0597 31.6545 52.1762 30.9515 48.0532 30.9515C41.6217 30.9515 34.1347 33.2395 27.7532 37.231C23.8197 39.6905 23.5142 40.919 23.0412 44.7075C22.7071 47.3518 22.5235 50.013 22.4912 52.678" stroke="black" stroke-width="0.564931" stroke-linecap="round" stroke-linejoin="round"/>
<path d="M50.1148 41.5632C46.4763 50.6357 45.5203 55.6052 40.7098 75.7132C39.8008 79.5252 38.8008 81.4117 34.3448 82.6992C29.6888 84.0442 20.3988 85.9197 19.0498 86.2807" stroke="black" stroke-width="0.564931" stroke-linecap="round" stroke-linejoin="round"/>
<path d="M16.3708 78.6891C16.2208 77.5391 16.6368 76.6646 17.1403 76.5326C17.7953 76.3606 18.8323 77.3211 19.5153 80.8646C20.2383 84.6146 19.6653 86.1426 19.0498 86.2891C18.6598 86.3816 18.2138 85.9566 17.9953 85.2726" stroke="black" stroke-width="0.564931" stroke-linecap="round" stroke-linejoin="round"/>
<path d="M17.1403 76.5327C20.4653 75.7917 32.5968 73.0827 33.4233 72.8942" stroke="black" stroke-width="0.564931" stroke-linecap="round" stroke-linejoin="round"/>
<path d="M48.7277 45.183C42.1917 43.853 34.8507 45.6495 32.5007 51.8615C30.4402 57.315 31.0757 64.1925 31.6007 73.2935" stroke="black" stroke-width="0.564931" stroke-linecap="round" stroke-linejoin="round"/>
<path d="M36.3682 36.8888C37.2159 39.928 37.7069 43.0556 37.8312 46.2083" stroke="black" stroke-width="0.564931" stroke-linecap="round" stroke-linejoin="round"/>
<path d="M30.6115 53.144C30.6305 50.75 30.849 45.126 30.982 43.853C33.0869 43.0552 35.2339 42.3733 37.4134 41.8105" stroke="black" stroke-width="0.564931" stroke-linecap="round" stroke-linejoin="round"/>
<path d="M13.8633 79.3163C15.6018 79.3203 16.4853 94.1838 14.5093 94.1743C12.5333 94.1648 11.7448 79.3113 13.8633 79.3163Z" stroke="black" stroke-width="0.564931" stroke-linecap="round" stroke-linejoin="round"/>
<path d="M13.8627 79.3161C14.9627 79.0691 15.8957 78.7661 18.7457 78.1381" stroke="black" stroke-width="0.564931" stroke-linecap="round" stroke-linejoin="round"/>
<path d="M19.8577 83.6579C18.4897 84.0579 17.8232 84.7134 17.2927 88.2749C16.9277 90.7249 16.2477 93.7279 14.5092 94.1749" stroke="black" stroke-width="0.564931" stroke-linecap="round" stroke-linejoin="round"/>
<path d="M55.0838 82.7841C53.9628 82.5656 53.2553 82.0901 53.2883 81.5776C53.3303 80.9216 54.5713 80.4211 58.0858 80.7036C62.0003 81.0186 62.8738 81.8246 62.8738 82.3661C62.8738 82.8506 62.0738 83.0216 61.3738 83.0216" stroke="black" stroke-width="0.564931" stroke-linecap="round" stroke-linejoin="round"/>
<path d="M54.6932 85.8042C55.1492 84.3507 69.0932 88.5402 68.5537 90.1742C68.1352 91.4377 54.0762 87.7707 54.6932 85.8042Z" stroke="black" stroke-width="0.564931" stroke-linecap="round" stroke-linejoin="round"/>
<path d="M54.6937 85.8043C54.8552 84.7118 54.9692 83.4673 55.3872 80.6543" stroke="black" stroke-width="0.564931" stroke-linecap="round" stroke-linejoin="round"/>
<path d="M60.812 81.0927C60.8025 82.4987 61.212 83.3547 64.1465 85.4427C66.4465 87.0777 68.754 88.4352 68.5545 90.1737" stroke="black" stroke-width="0.564931" stroke-linecap="round" stroke-linejoin="round"/>
<path d="M47.265 49.5426C51.214 52.0586 55.0195 54.7926 58.665 57.7316C62.4915 60.9166 62.883 62.1016 62.883 67.6211V82.3651" stroke="black" stroke-width="0.564931" stroke-linecap="round" stroke-linejoin="round"/>
<path d="M53.2876 81.5775C53.3541 77.768 53.3826 66.7275 53.2876 65.3135C50.4186 64.3255 45.9726 62.834 43.9111 62.2635" stroke="black" stroke-width="0.564931" stroke-linecap="round" stroke-linejoin="round"/>
<path d="M45.7545 44.803C41.926 49.5435 39.513 60.5064 37.4135 76.0579C31.552 77.9009 22.679 79.9624 19.468 80.6274" stroke="black" stroke-width="0.564931" stroke-linecap="round" stroke-linejoin="round"/>
<path d="M28.9511 52.1462C29.0271 53.6377 29.1791 57.4962 28.9796 58.2167C28.7801 58.9372 26.6436 62.4542 25.3696 63.9547C24.5626 64.9047 23.5696 65.1212 24.5906 63.1472C25.1914 61.9682 25.7094 60.7482 26.1406 59.4972C27.3516 56.0497 24.7906 55.3087 23.7656 56.5427C22.1996 58.4247 21.0266 58.8977 21.6471 57.4167C22.0256 56.5137 22.2266 55.9727 22.4926 55.2887C22.7586 54.6047 24.4686 53.7117 24.5826 53.3127C24.674 52.8562 24.7059 52.3902 24.6776 51.9257" stroke="black" stroke-width="0.564931" stroke-linecap="round" stroke-linejoin="round"/>
<path d="M25.5191 61.1139C24.7327 61.9164 23.8448 62.6124 22.8781 63.1849C21.6996 63.8754 21.2916 63.2324 22.6781 61.9404C23.6475 61.0399 24.5216 60.0419 25.2866 58.9624" stroke="black" stroke-width="0.564931" stroke-linecap="round" stroke-linejoin="round"/>
<path d="M24.4744 58.2735C24.9652 58.7605 25.5274 59.1695 26.1414 59.487" stroke="black" stroke-width="0.564931" stroke-linecap="round" stroke-linejoin="round"/>
<path d="M24.1616 60.3928C23.2604 60.8408 22.3059 61.1728 21.3211 61.3808C20.0391 61.6493 20.2106 60.8988 21.5681 60.3263C22.6588 59.8103 23.6934 59.1828 24.6556 58.4548" stroke="black" stroke-width="0.564931" stroke-linecap="round" stroke-linejoin="round"/>
<path d="M22.8972 59.6323C22.2068 59.7463 21.506 59.7843 20.8072 59.7463C19.8762 59.6323 19.6097 59.0883 21.0257 58.8723C22.1396 58.7118 23.2225 58.3818 24.2367 57.8938C24.3466 57.2048 24.6023 56.5473 24.9867 55.9653" stroke="black" stroke-width="0.564931" stroke-linecap="round" stroke-linejoin="round"/>
<path d="M46.3337 62.9861C46.2862 60.9246 46.1627 55.0441 46.3337 52.6786" stroke="black" stroke-width="0.564931" stroke-linecap="round" stroke-linejoin="round"/>
<path d="M32.9771 43.1403C34.3858 41.898 35.7151 40.5685 36.9576 39.1598" stroke="black" stroke-width="0.564931" stroke-linecap="round" stroke-linejoin="round"/>
<path d="M63.5857 28.5766L62.8357 27.7596L62.1897 25.7741L64.1182 26.5816L73.1507 36.3951C73.3067 36.5639 73.3897 36.7879 73.3807 37.0177C73.3717 37.2475 73.2722 37.4644 73.1032 37.6206C72.9342 37.7768 72.7102 37.8596 72.4807 37.8507C72.2507 37.8418 72.0337 37.7419 71.8777 37.5731L64.7052 29.7731" stroke="black" stroke-width="0.564931" stroke-linecap="round" stroke-linejoin="round"/>
<path d="M71.7839 34.9134C71.4809 34.9691 71.1994 35.1092 70.9724 35.3176C70.7454 35.526 70.5819 35.7942 70.5004 36.0914" stroke="black" stroke-width="0.564931" stroke-linecap="round" stroke-linejoin="round"/>
<path d="M72.297 35.4732C71.994 35.529 71.713 35.6692 71.486 35.8776C71.2595 36.086 71.096 36.3541 71.0145 36.6512" stroke="black" stroke-width="0.564931" stroke-linecap="round" stroke-linejoin="round"/>
<path d="M62.816 34.3717C62.911 32.5952 62.645 31.6357 62.645 30.7332C62.645 30.3152 63.225 29.4697 63.842 27.9497C64.251 26.9427 65.057 27.5887 64.7255 29.4412C64.3635 31.4647 65.6375 32.5952 66.806 32.0727" stroke="black" stroke-width="0.564931" stroke-linecap="round" stroke-linejoin="round"/>
<path d="M66.1412 28.7764C66.8347 28.8809 67.4237 28.9854 67.6912 29.0519C67.7292 29.523 67.7292 29.9963 67.6912 30.4674" stroke="black" stroke-width="0.564931" stroke-linecap="round" stroke-linejoin="round"/>
<path d="M64.7261 27.2491C66.0181 27.3061 68.9821 27.4771 69.2956 27.7906C69.7706 28.2656 69.8846 30.5836 69.9416 31.4006" stroke="black" stroke-width="0.564931" stroke-linecap="round" stroke-linejoin="round"/>
<path d="M69.7606 29.3179C71.4231 32.3294 71.4421 32.7379 70.7201 33.7544" stroke="black" stroke-width="0.564931" stroke-linecap="round" stroke-linejoin="round"/>
<path d="M69.6659 35.1992C68.7634 36.3582 67.7159 37.4222 67.4904 38.0017" stroke="black" stroke-width="0.564931" stroke-linecap="round" stroke-linejoin="round"/>
<path d="M47.4201 27.514C48.0852 26.9436 48.6834 26.2995 49.2031 25.594C48.1581 24.1595 49.3226 23.259 49.7636 24.283C50.0176 24.873 50.2861 23.9695 50.2861 23.238C50.6336 23.2599 50.9736 23.3503 51.2861 23.504C53.2906 22.3355 54.3641 16.284 49.4716 16.7875C50.0961 11.61 42.7051 10.8785 42.4296 15.1995C38.6581 12.2735 32.5971 16.8335 36.8626 19.959C34.5446 20.1015 33.7751 23.17 36.2546 23.17C30.5241 27.0775 35.0416 35.784 47.4201 27.514Z" stroke="black" stroke-width="0.564931" stroke-linecap="round" stroke-linejoin="round"/>
<path d="M41.8776 31.579C44.8321 29.888 48.2996 26.979 49.2021 25.594" stroke="black" stroke-width="0.564931" stroke-linecap="round" stroke-linejoin="round"/>
<path d="M49.3833 30.9898C49.2568 30.3398 49.1618 29.6898 49.0963 29.0343C51.9203 29.4843 51.5113 27.9698 51.2738 23.5038" stroke="black" stroke-width="0.564931" stroke-linecap="round" stroke-linejoin="round"/>
<path d="M49.0966 29.0345C49.0531 28.604 49.0226 28.1745 49.0036 27.741C49.9916 28.463 50.9036 28.919 51.2076 28.463" stroke="black" stroke-width="0.564931" stroke-linecap="round" stroke-linejoin="round"/>
</svg>
