<svg width="100" height="100" viewBox="0 0 100 100" fill="none" xmlns="http://www.w3.org/2000/svg">
<path d="M55.8113 18.7544C55.2432 18.5968 54.6399 18.6211 54.0863 18.8239C53.7478 18.9354 53.8918 18.6739 53.7593 17.7334C53.6535 16.7225 53.3251 15.7477 52.7978 14.8789C51.6693 13.2249 48.0903 12.7864 46.8153 15.1589C46.7568 15.3744 47.6093 14.6299 47.7288 14.9889C47.8478 15.3644 47.0663 15.2934 46.9008 15.7889C46.8823 15.8202 46.8567 15.8468 46.8261 15.8666C46.7955 15.8863 46.7607 15.8987 46.7246 15.9026C46.6884 15.9066 46.6517 15.9021 46.6176 15.8895C46.5834 15.8768 46.5527 15.8564 46.5278 15.8299C46.3559 16.3411 46.2206 16.8639 46.1228 17.3944C45.5788 20.0884 45.8683 22.2764 48.5333 22.9814C50.3488 23.4634 50.9008 23.1189 50.8783 23.5964C50.8453 24.762 51.0001 25.9254 51.3368 27.0419C51.3908 27.1964 51.5633 27.6244 51.7258 27.6244C51.7288 27.6244 51.7343 27.6274 51.7373 27.6274C52.2788 27.5455 52.7844 27.3065 53.1913 26.9399C53.6273 25.2944 54.5268 25.4269 54.5523 25.2484C54.5948 24.9434 54.3558 23.0859 54.3138 22.7174C53.9418 19.5439 53.9113 20.4954 55.1373 20.2714C55.5321 20.1866 55.8877 19.9733 56.1483 19.6649C56.3393 19.3949 56.0198 18.9829 55.7203 18.8449L55.8113 18.7544Z" fill="#FFCEB6"/>
<path d="M31.1859 24.137C31.1239 23.8405 30.6689 23.9665 30.7309 24.263C30.798 24.6745 30.7765 25.0956 30.6678 25.4981C30.559 25.9006 30.3656 26.2753 30.1004 26.597C29.0189 28.022 27.2149 28.4235 25.4559 28.7405C27.1809 27.0665 26.0469 24.3905 25.5999 24.962C24.9334 25.812 24.3064 26.662 24.3344 27.742C24.3344 27.792 24.4269 29.0135 24.4194 28.934C23.235 29.1072 22.0988 29.522 21.0814 30.1525C22.3104 27.95 21.6699 25.3815 20.3314 23.221C20.2169 23.036 19.8704 23.0945 19.8939 23.3385C20.1039 25.545 18.4479 29.2335 20.2439 30.6385C20.4279 30.7765 20.4739 30.5985 20.1589 30.9645C19.522 31.7238 19.0814 32.628 18.8759 33.5975C18.7245 32.628 18.338 31.7103 17.7504 30.9245C17.1699 30.2245 16.4054 29.763 14.5974 28.5055C14.3944 28.3645 14.1654 28.6345 14.2744 28.8285C15.5139 31.039 14.8549 33.7915 18.7014 34.6005C18.3429 37.9365 19.7164 40.6505 18.7629 46.737C18.7164 47.0335 19.1714 47.16 19.2184 46.8635C19.6682 43.9398 19.681 40.9655 19.2564 38.038C19.3036 38.0423 19.3508 38.03 19.39 38.0033C19.4291 37.9766 19.4577 37.937 19.4709 37.8915C21.7814 37.046 22.9709 34.665 23.4429 32.375C23.4869 32.1665 23.2109 31.949 23.0494 32.146C21.7629 33.687 19.7429 34.634 19.1389 36.7405C18.5179 26.7405 27.2619 31.156 30.5124 26.832C30.8088 26.456 31.0221 26.0213 31.138 25.5567C31.2539 25.0921 31.2699 24.6082 31.1849 24.137H31.1859ZM16.0134 32.2C15.5759 31.305 15.3969 30.3155 15.0444 29.3875C17.3384 30.971 17.9659 31.268 18.4944 34.0705C17.2584 33.7795 16.5944 33.38 16.0139 32.2H16.0134ZM20.8139 34.913C21.4304 34.2815 22.1379 33.7415 22.7719 33.131C22.2554 34.9215 21.2514 36.6625 19.4899 37.388C19.6397 36.4374 20.1063 35.5652 20.8139 34.913ZM24.9389 26.913C25.1271 26.427 25.3915 25.9741 25.7224 25.5715C25.9408 26.0998 25.9772 26.6858 25.8258 27.2371C25.6743 27.7883 25.3436 28.2735 24.8859 28.616C24.7697 28.052 24.7879 27.4686 24.9389 26.913ZM16.4329 39.867C15.9708 38.9244 15.3422 38.0731 14.5774 37.354C14.6124 37.3198 14.6335 37.2738 14.6364 37.225C14.7434 37.0535 14.5039 37.1815 14.9004 36.708C15.9874 35.408 15.0504 33.9665 13.9169 32.745C13.8877 32.7167 13.8517 32.6963 13.8125 32.6858C13.7732 32.6753 13.7318 32.6751 13.6924 32.6851C13.653 32.6951 13.6168 32.7151 13.5873 32.7431C13.5578 32.7711 13.536 32.8062 13.5239 32.845C13.1625 34.2139 13.3466 35.6696 14.0374 36.9055C13.344 36.3755 12.5203 36.0428 11.6534 35.9425L11.6124 35.8865C11.3962 35.2837 11.045 34.7384 10.5857 34.2922C10.1264 33.846 9.57113 33.5107 8.96238 33.312C8.86874 33.6818 8.88683 34.0711 9.01436 34.4306C9.14189 34.7902 9.37314 35.1038 9.67888 35.332C10.5434 36.032 11.2549 35.8745 10.7119 35.9485C10.0965 35.9917 9.50142 36.1863 8.97949 36.5151C8.45757 36.8439 8.02503 37.2966 7.72038 37.833C7.67038 38.033 6.34288 38.827 7.42388 42.146C7.71488 43.035 9.65938 40.269 8.33088 37.9095C8.31507 37.8805 8.29304 37.8554 8.26638 37.836C8.65503 37.303 9.1845 36.8888 9.79538 36.64C10.4063 36.3911 11.0744 36.3173 11.7249 36.427C11.2415 36.5709 10.8078 36.8465 10.4722 37.223C10.1367 37.5994 9.91252 38.0619 9.82488 38.5585C9.81668 39.0995 9.74877 39.6379 9.62238 40.164C9.55488 40.3435 9.75138 40.49 9.91288 40.455C10.7418 40.245 11.482 39.7758 12.0254 39.1156C12.5689 38.4554 12.8872 37.6388 12.9339 36.785C14.2418 37.4648 15.2908 38.5549 15.9199 39.888C16.4424 40.884 15.6854 39.4005 14.1994 40.3815C13.5829 40.7815 13.1189 41.459 12.3994 41.691C12.3463 41.7079 12.3009 41.743 12.271 41.7901C12.2412 41.8372 12.2289 41.8932 12.2362 41.9485C12.2435 42.0037 12.27 42.0546 12.3111 42.0923C12.3522 42.1299 12.4052 42.152 12.4609 42.1545C13.3209 42.2075 14.1844 42.2985 15.0444 42.313C16.1039 42.332 16.0609 41.583 16.4009 41.168C16.416 41.1485 16.4278 41.1267 16.4359 41.1035C16.9966 42.9375 17.1774 44.8667 16.9674 46.773C16.9674 46.8353 16.9921 46.8951 17.0362 46.9392C17.0803 46.9832 17.1401 47.008 17.2024 47.008C17.2647 47.008 17.3245 46.9832 17.3686 46.9392C17.4126 46.8951 17.4374 46.8353 17.4374 46.773C17.6874 44.852 17.4129 41.823 16.4329 39.8645V39.867ZM7.74288 41.591C7.41688 40.487 7.22038 39.204 7.97788 38.259C8.23931 38.7849 8.35537 39.3711 8.31405 39.957C8.27273 40.5428 8.07553 41.107 7.74288 41.591ZM10.1829 39.8765C10.3149 39.1105 10.1129 38.4955 10.6614 37.7305C10.8675 37.4451 11.137 37.2114 11.4487 37.0478C11.7605 36.8843 12.1059 36.7953 12.4579 36.788C12.416 37.4671 12.179 38.1197 11.7755 38.6675C11.372 39.2153 10.819 39.6351 10.1829 39.8765ZM13.8829 33.406C14.6039 34.206 15.2554 35.287 14.6829 36.2095C14.5974 36.3475 14.4889 36.468 14.3949 36.591C13.8761 35.6154 13.6955 34.4952 13.8814 33.406" fill="#5BBD8F"/>
<path d="M22.7529 46.7957C15.0244 46.7057 15.4634 46.7817 15.4634 47.0332C15.3794 55.9972 15.2929 55.6032 15.6189 55.6032C21.3879 55.6877 21.2499 55.7572 21.2939 55.5087C23.0494 46.7997 23.1704 46.7957 22.7529 46.7957ZM21.0529 54.3407C20.9944 54.6312 20.9359 54.9217 20.8799 55.2097C14.0669 55.1047 16.6099 55.1512 15.8594 55.1362C15.8779 53.3437 15.9039 50.1387 15.9359 47.2682H22.4684L21.0529 54.3407ZM31.3874 46.9657C31.3054 46.6377 30.9019 46.8827 28.7834 46.7987H24.9959C23.6209 46.8582 24.0114 46.1797 23.4839 49.8487C22.6594 55.6987 22.5389 55.7707 22.9144 55.7707C30.6064 55.8502 30.1689 55.7767 30.1954 55.5972C31.4644 46.5792 31.4229 47.0897 31.3874 46.9657Z" fill="#E59E70"/>
<path d="M34.8435 21.2241C34.5715 21.5784 34.2342 21.8774 33.85 22.1051C34.1199 21.4853 34.3551 20.851 34.5545 20.2051C34.5668 20.1554 34.5626 20.103 34.5427 20.0558C34.5227 20.0087 34.488 19.9692 34.4437 19.9434C34.3995 19.9176 34.3481 19.9069 34.2972 19.9128C34.2463 19.9187 34.1987 19.9409 34.1615 19.9761C33.5979 20.4657 32.9953 20.9083 32.3595 21.2996L32.615 19.5996C32.6271 19.5499 32.6227 19.4976 32.6027 19.4505C32.5826 19.4034 32.5479 19.3641 32.5036 19.3383C32.4594 19.3126 32.4081 19.3018 32.3572 19.3077C32.3064 19.3135 32.2588 19.3355 32.2215 19.3706C29.15 22.0096 27.177 23.1251 29.741 25.2846C29.973 25.4781 30.3075 25.1466 30.0725 24.9526C27.963 23.1896 29.2955 22.4676 32.0605 20.1261C31.7605 22.1126 31.3775 22.7511 33.845 20.8426C33.6433 21.4031 33.415 21.9537 33.161 22.4926C33.082 22.6571 33.217 22.9181 33.4285 22.8391C33.9341 22.6435 34.3967 22.3512 34.7905 21.9786C34.6917 22.8062 34.3539 23.587 33.8185 24.2257C33.283 24.8644 32.5731 25.3333 31.7755 25.5751C31.7152 25.5918 31.6639 25.6318 31.6331 25.6863C31.6022 25.7408 31.5943 25.8053 31.611 25.8656C31.6277 25.9259 31.6677 25.9772 31.7222 26.008C31.7766 26.0389 31.8412 26.0468 31.9015 26.0301C35.665 24.9731 35.688 20.1101 34.8435 21.2241Z" fill="#FF9F48"/>
<path d="M26.8199 43.4074C26.7955 42.8865 26.7375 42.3678 26.6464 41.8544C26.3964 40.5119 25.7239 39.9329 24.2744 38.9274C24.1159 38.8154 23.8514 39.0034 23.9279 39.1944C24.3009 40.1074 24.6469 41.0379 25.0579 41.9334C26.2724 44.5834 26.5169 41.5924 26.3644 46.5514C26.3644 46.6137 26.3892 46.6735 26.4332 46.7176C26.4773 46.7616 26.5371 46.7864 26.5994 46.7864C26.6617 46.7864 26.7215 46.7616 26.7656 46.7176C26.8096 46.6735 26.8344 46.6137 26.8344 46.5514C26.8584 45.7299 26.8844 44.2269 26.8199 43.4074ZM39.5524 29.7644C38.9948 30.8248 38.1777 31.7266 37.1774 32.3859C35.5204 33.5604 33.6364 34.2359 31.9664 35.3894C32.6594 32.9794 34.5324 32.7434 33.9714 29.0894C33.9714 28.3219 33.4129 28.5489 33.4634 28.8689C33.6419 29.9034 32.6409 30.2594 31.1704 32.1424C30.3989 33.1364 30.2054 34.1354 31.3849 35.6714C31.4112 35.705 31.4456 35.7314 31.4849 35.7479C30.2246 36.6624 29.299 37.965 28.8499 39.4559C28.5414 38.1464 27.5169 37.0159 26.4954 36.1469C25.7409 35.5024 25.7124 39.1089 27.9809 41.1584C28.0143 41.1873 28.0548 41.2066 28.0982 41.2145C28.1416 41.2223 28.1863 41.2184 28.2277 41.2031C28.2691 41.1878 28.3056 41.1616 28.3334 41.1274C28.3612 41.0931 28.3794 41.052 28.3859 41.0084C27.6979 48.5734 27.9684 45.9899 27.8664 46.8244C27.8309 47.1244 28.3009 47.1209 28.3359 46.8244C28.4859 45.6209 28.6319 40.4974 29.4664 39.3849C30.326 39.8997 31.3474 40.0734 32.3289 39.8719C33.5119 39.6959 34.1694 38.7389 34.7859 37.8169C35.1858 37.267 35.4924 36.655 35.6934 36.0054C35.7059 35.9556 35.7018 35.9031 35.6818 35.8557C35.6619 35.8084 35.6271 35.7689 35.5827 35.7431C35.5383 35.7172 35.4867 35.7065 35.4357 35.7125C35.3847 35.7185 35.3371 35.741 35.2999 35.7764C33.2879 37.7764 31.8554 36.5169 30.1649 37.7764C31.7819 35.3719 34.8484 34.5494 37.2149 32.9409C38.3772 32.21 39.3294 31.1892 39.9779 29.9789C39.8308 29.9191 39.6884 29.8484 39.5519 29.7674L39.5524 29.7644ZM28.3844 40.9619C28.3584 41.0144 28.4344 40.9374 28.3109 40.8209C27.7537 40.3119 27.3085 39.6924 27.0038 39.0019C26.6991 38.3115 26.5414 37.5651 26.5409 36.8104C27.7064 37.8789 28.8104 39.3059 28.3844 40.9604V40.9619ZM30.5344 38.0714C31.8509 37.1844 32.9844 37.9894 34.9119 36.6944C34.6384 37.2189 33.7619 38.6349 33.1119 39.0754C32.2999 39.6219 30.4559 39.5754 29.6854 38.9579C29.9009 38.6041 30.191 38.3016 30.5354 38.0714" fill="#5BBD8F"/>
<path d="M44.1816 27.1345C43.9841 26.8715 43.8246 27.137 42.7281 27.4425C42.9085 27.0841 43.0682 26.7156 43.2066 26.339C43.2174 26.2988 43.2174 26.2564 43.2066 26.2162C43.1959 26.1759 43.1747 26.1392 43.1453 26.1097C43.1159 26.0802 43.0792 26.059 43.039 26.0482C42.9987 26.0373 42.9564 26.0373 42.9161 26.048C42.4698 26.1951 42.0334 26.3707 41.6096 26.5735L41.6716 25.2585C41.6708 25.2173 41.6593 25.1769 41.6383 25.1414C41.6172 25.106 41.5873 25.0766 41.5514 25.0562C41.5156 25.0357 41.475 25.025 41.4338 25.025C41.3925 25.0249 41.352 25.0356 41.3161 25.056C36.0691 27.756 39.5276 31.3395 42.5346 29.8C43.8106 29.15 44.3436 27.363 44.1816 27.1345ZM29.5876 33.7C29.2779 33.7767 28.9643 33.8364 28.6481 33.879C28.6891 33.609 28.7271 33.336 28.7681 33.066C28.7916 32.9075 28.6681 32.7105 28.4776 32.775C28.1901 32.878 27.8961 32.966 27.5996 33.045C27.6351 32.731 27.6731 32.417 27.7086 32.103C27.8196 31.1775 24.8016 33.1625 25.6766 34.7365C25.9596 35.1604 26.3705 35.4829 26.8494 35.6571C27.3284 35.8313 27.8504 35.8481 28.3396 35.705C29.1266 35.405 30.2396 33.716 29.5896 33.7" fill="#FF9F48"/>
<path d="M53.8915 79.3079C49.0325 78.5839 51.2985 78.9234 44.6615 77.9339L44.946 75.8669C44.889 75.8524 44.4345 75.7304 44.496 75.7469C44.1775 78.0814 44.0695 78.3224 44.3405 78.3624C45.4355 78.5241 46.5305 78.6866 47.6255 78.8499C54.532 79.8764 54.2925 79.9344 54.337 79.5779C54.431 78.8144 54.528 78.0514 54.622 77.2909C54.475 77.3084 54.3165 77.3199 54.146 77.3264C54.058 77.9809 53.976 78.6444 53.8935 79.3079H53.8915ZM64.963 48.4109C64.7395 48.1789 63.0425 48.1109 61.34 48.0999C60.7768 49.6722 59.8953 51.1114 58.7505 52.3274C60.0719 52.2434 61.3685 51.9295 62.582 51.3999C64.4755 50.3899 65.432 48.8924 64.963 48.4109ZM71.727 73.1749C55.8295 51.3954 57.599 53.4839 57.1065 53.9249C56.711 54.2779 57.2175 52.8099 53.9005 65.3449C53.403 67.2244 53.473 66.9794 53.466 67.0009C53.4493 67.0613 53.4572 67.1258 53.4881 67.1802C53.5189 67.2347 53.5701 67.2747 53.6305 67.2914C53.6908 67.3081 53.7553 67.3002 53.8098 67.2693C53.8643 67.2385 53.9043 67.1873 53.921 67.1269C54.3635 65.4579 57.1425 54.8944 57.306 54.2884C57.3335 54.1809 57.2025 54.0539 58.506 55.8299C73.3205 76.1444 71.3805 72.8984 71.0185 74.0799C71.324 74.1329 72.4735 74.3679 72.6145 74.3914C72.933 74.4479 72.832 74.9204 72.53 74.8229C72.002 74.7374 71.4765 74.6409 70.951 74.5469C70.9275 76.8629 74.298 76.8104 74.298 74.5999C74.2915 74.3028 74.2073 74.0126 74.0537 73.7581C73.9001 73.5037 73.6825 73.294 73.4225 73.1499C73.1626 73.0059 72.8695 72.9324 72.5723 72.937C72.2751 72.9416 71.9844 73.0239 71.729 73.1759L71.727 73.1749ZM48.0805 70.8419C46.7675 68.8304 48.4305 70.6149 42.765 65.5389C28.933 53.1504 31.941 55.8664 31.5265 55.4659C31.505 55.4434 31.5225 55.4269 31.3825 55.9659C31.4485 56.0249 39.7 63.4234 41.843 65.3429C48.2615 71.0969 47.2555 70.2104 47.8615 70.7429L48.0805 70.8419ZM37.574 59.2384C40.3105 61.7104 44.324 65.3384 46.0355 66.8834C45.9355 66.5929 45.8445 66.2959 45.7595 65.9994C43.114 63.6039 32.073 53.6434 31.9875 53.5574C31.9435 53.7279 31.902 53.8984 31.858 54.0684C32.628 54.7644 32.0015 54.1969 37.574 59.2384ZM23.444 73.2424C23.391 73.3219 22.716 74.6674 22.6865 74.7249C22.5485 74.9949 22.1435 74.7574 22.2815 74.4874L23.027 73.0254C22.7779 72.9341 22.5105 72.9039 22.2474 72.9376C21.9842 72.9713 21.733 73.0678 21.515 73.2189C21.2271 73.427 21.0119 73.7203 20.8998 74.0574C20.7878 74.3945 20.7847 74.7583 20.8909 75.0973C20.997 75.4362 21.2072 75.7332 21.4914 75.9462C21.7757 76.1592 22.1198 76.2773 22.475 76.2839C22.8307 76.2847 23.1775 76.1721 23.4649 75.9624C23.7523 75.7528 23.9655 75.4571 24.0735 75.1181C24.1815 74.7791 24.1787 74.4146 24.0655 74.0773C23.9523 73.74 23.7346 73.4476 23.444 73.2424Z" fill="#FFD35C"/>
<path d="M64.8887 38.3838C65.5817 38.8418 66.2742 39.3028 66.9642 39.7608C66.7642 37.7253 64.9207 37.9988 63.5352 37.6108C63.9617 39.7013 64.7107 40.4813 66.8527 40.3853C66.9057 40.2393 67.3267 40.5698 64.6477 38.7943C64.4012 38.6268 64.6362 38.2188 64.8887 38.3858" fill="#86F2AA"/>
<path d="M66.2131 40.8534C66.0736 41.0559 64.9361 41.5109 63.7291 41.3264C63.6688 41.3096 63.6176 41.2695 63.5868 41.215C63.556 41.1605 63.5481 41.096 63.5649 41.0356C63.5816 40.9753 63.6217 40.9241 63.6762 40.8933C63.7308 40.8625 63.7953 40.8546 63.8556 40.8714C64.3679 40.945 64.8902 40.8997 65.3821 40.7389C64.9145 40.6348 64.4854 40.4021 64.1431 40.0669C64.1162 40.0719 64.0884 40.0714 64.0617 40.0653C64.0349 40.0592 64.0097 40.0477 63.9876 40.0314C63.7256 39.8449 63.5141 40.0474 61.6876 40.8814C64.2966 42.9764 66.1676 42.2814 66.8516 40.8494C66.6396 40.8645 66.4269 40.8663 66.2146 40.8549L66.2131 40.8534ZM66.2161 35.8129C66.0871 35.7424 65.8341 35.6454 65.6161 35.5219C65.4661 36.2294 65.3661 37.0634 65.8066 37.6219C66.2637 37.7502 66.6686 38.0195 66.9636 38.3914C66.9365 37.8217 66.7323 37.2746 66.3796 36.8264C66.1681 36.6094 66.5026 36.2764 66.7111 36.4949C67.5411 37.3524 67.5316 39.3334 67.4111 39.5334C67.4418 39.7779 67.4575 40.024 67.4581 40.2704C68.6346 39.6704 69.0796 37.3414 66.2166 35.8109" fill="#86F2AA"/>
<path d="M56.882 12.9956C56.964 13.1721 57.132 13.3126 57.197 13.4916C57.3554 13.5103 57.5151 13.4678 57.6433 13.3729C57.7715 13.2779 57.8587 13.1376 57.887 12.9806C57.9454 12.6088 57.9096 12.2282 57.7828 11.8739C57.6561 11.5195 57.4424 11.2025 57.1615 10.9521C56.6315 10.6091 55.485 10.7856 54.8695 10.9141C55.7366 11.3868 56.4387 12.113 56.882 12.9956ZM49.834 34.1806C51.1965 32.4806 51.79 30.0716 52.937 27.9361C52.9705 27.5361 52.9955 27.6146 52.937 27.6396C51.8995 28.2591 51.229 28.2496 50.867 27.1196C48.717 29.4771 47.3105 33.3696 46.331 36.4091C47.6858 36.0107 48.9008 35.2383 49.8365 34.1806H49.834ZM55.788 37.8796C56.097 38.5936 56.5061 39.2599 57.003 39.8586C57.1885 39.7381 57.429 39.5796 57.714 39.3801C57.5895 39.1801 56.892 37.9476 56.498 37.2016C56.2731 37.4396 56.0361 37.6659 55.788 37.8796ZM56.8415 36.8316C57.2398 37.5996 57.6629 38.3545 58.11 39.0951C59.3606 38.1809 60.4825 37.1025 61.4455 35.8891C60.7667 33.6346 59.8985 31.4417 58.85 29.3336C58.957 32.0166 58.641 34.7336 56.8415 36.8336" fill="#AC47F5"/>
<path d="M58.1571 41.907C56.0601 39.535 55.9666 39.117 55.4381 38.016C52.5206 40.304 48.1746 41.445 44.5056 41.8575C44.5189 42.2722 44.6851 42.6673 44.9721 42.967C47.5421 45.6885 51.8676 45.886 55.5911 45.527C57.4507 45.4158 59.2881 45.0645 61.0576 44.482C59.9741 43.765 58.9977 42.8981 58.1576 41.907" fill="#AC47F5"/>
<path d="M50.0563 40.2864C54.3788 38.9764 58.0738 36.5034 58.5828 32.0159C58.8208 29.8929 58.3053 26.7469 56.2628 26.1564C54.6278 25.6784 53.6313 27.3294 52.8273 29.0424C50.1643 34.7859 50.7843 35.7614 43.3713 37.7854C39.7773 38.7559 39.7388 38.2889 39.9778 38.6634C41.6648 41.4709 40.0223 41.8224 41.4548 41.7429C44.3682 41.5918 47.2542 41.103 50.0548 40.2864" fill="#AC47F5"/>
<path d="M45.2152 52.8608C43.9967 50.8818 44.7782 48.7723 48.7912 49.6583C49.8697 48.2178 51.0852 46.9318 51.5177 45.6083C49.2327 45.4198 46.0677 44.2953 44.7517 42.6838C39.4737 44.8058 37.7582 49.3998 38.6337 53.0293C41.3992 52.9618 40.6957 52.8738 45.1422 52.7673L45.2152 52.8608ZM45.4592 53.2308C36.9242 53.4348 39.0827 53.3843 38.7217 53.3923C39.6217 56.3168 42.1652 58.7533 45.0157 60.4208C45.0187 60.3473 45.0157 60.2708 45.0187 60.1978C45.0876 58.1204 45.5004 56.0688 46.2402 54.1263C45.9599 53.8458 45.699 53.5466 45.4592 53.2308Z" fill="#FF8684"/>
<path d="M61.1732 44.4257C59.3656 45.0277 57.4887 45.3973 55.5877 45.5257C49.3187 46.1097 53.4377 44.2037 49.8662 49.0047C48.3857 51.0047 47.3387 52.1277 46.4662 54.4547C43.3607 62.7932 47.6032 71.8267 50.6887 72.9902C51.8032 73.4097 52.8032 73.0077 53.0857 71.7537C53.7007 69.0152 51.4227 66.6577 51.5012 62.2787C51.6582 54.0287 61.6907 54.0977 61.4482 44.6022L61.1732 44.4257Z" fill="#FF8684"/>
<path d="M90.1458 84.3248C88.9752 85.6669 88.1107 87.2476 87.6123 88.9573C87.5994 89.0163 87.6096 89.0781 87.6408 89.1298C87.672 89.1816 87.7218 89.2195 87.78 89.2357C87.8382 89.2518 87.9004 89.2451 87.9538 89.2169C88.0073 89.1886 88.0479 89.141 88.0673 89.0838C88.542 87.4517 89.3655 85.942 90.4808 84.6593C90.6773 84.4303 90.3453 84.0958 90.1458 84.3248ZM93.5498 84.1688C91.7637 85.4042 90.3576 87.1135 89.4898 89.1043C89.3693 89.3803 89.7773 89.6208 89.8948 89.3418C90.7227 87.4217 92.0698 85.7706 93.7848 84.5743C94.0348 84.4038 93.7993 83.9958 93.5498 84.1688ZM97.1448 84.3998C95.2261 85.459 93.5564 86.9167 92.2478 88.6748C92.0658 88.9183 92.4738 89.1533 92.6533 88.9123C93.919 87.2218 95.5316 85.8215 97.3828 84.8053C97.6498 84.6613 97.4123 84.2553 97.1448 84.3998ZM2.84528 85.5108C2.59528 85.3433 2.35528 85.7513 2.60728 85.9158C3.28059 86.3668 3.83684 86.9716 4.23001 87.6802C4.62318 88.3888 4.84197 89.1808 4.86828 89.9908C4.87107 90.0512 4.89702 90.1082 4.94074 90.1499C4.98445 90.1917 5.04258 90.215 5.10303 90.215C5.16348 90.215 5.2216 90.1917 5.26532 90.1499C5.30904 90.1082 5.33499 90.0512 5.33778 89.9908C5.30873 89.0996 5.06743 88.2282 4.63392 87.449C4.20041 86.6699 3.58721 86.0054 2.84528 85.5108ZM4.42478 83.7608C4.21628 83.5408 3.88478 83.8728 4.09328 84.0928C5.22201 85.2901 6.00871 86.7683 6.37128 88.3733C6.43878 88.6698 6.89128 88.5433 6.82628 88.2468C6.44005 86.5644 5.6115 85.0157 4.42628 83.7608H4.42478ZM6.94678 84.3423L7.09678 87.7068C7.11178 88.0068 7.58128 88.0068 7.56678 87.7068L7.41678 84.3423C7.40528 84.0423 6.93278 84.0423 6.94728 84.3423H6.94678ZM37.2828 83.8548C36.6576 85.0602 36.1541 86.325 35.7798 87.6303C35.7715 87.6602 35.7692 87.6914 35.773 87.7222C35.7768 87.7529 35.7866 87.7827 35.8019 87.8096C35.8171 87.8366 35.8376 87.8603 35.862 87.8794C35.8865 87.8984 35.9144 87.9125 35.9443 87.9208C35.9742 87.9291 36.0054 87.9314 36.0361 87.9276C36.0669 87.9238 36.0966 87.914 36.1236 87.8987C36.1506 87.8834 36.1743 87.863 36.1934 87.8386C36.2124 87.8141 36.2265 87.7862 36.2348 87.7563C36.5972 86.4898 37.085 85.2626 37.6908 84.0928C37.8288 83.8228 37.4238 83.5848 37.2828 83.8548ZM39.0063 84.5998C38.3669 85.5835 37.8521 86.6428 37.4738 87.7533C37.3768 88.0413 37.8288 88.1643 37.9288 87.8798C38.2958 86.809 38.7948 85.7882 39.4143 84.8408C39.5788 84.5823 39.1733 84.3448 39.0063 84.5998ZM40.7678 85.7163C40.7133 85.6863 40.6494 85.6783 40.5893 85.6941C40.5291 85.71 40.4774 85.7483 40.4448 85.8013C40.1008 86.2963 38.9793 88.3703 39.5613 88.5288C39.6216 88.545 39.6859 88.5368 39.7402 88.506C39.7946 88.4753 39.8346 88.4244 39.8518 88.3643C40.2773 86.3433 41.2198 85.9798 40.7678 85.7143V85.7163ZM52.3908 84.7178C52.1703 84.5098 51.8358 84.8413 52.0588 85.0498C52.9267 85.8688 53.5809 86.8878 53.9643 88.0178C54.0613 88.3028 54.5143 88.1823 54.4193 87.8918C54.0102 86.6851 53.3141 85.5959 52.3908 84.7178ZM54.1173 83.8343C53.9148 83.6078 53.5828 83.9428 53.7853 84.1663C54.6339 85.1161 55.2153 86.274 55.4703 87.5218C55.5318 87.8183 55.9843 87.6923 55.9253 87.3958C55.6477 86.0698 55.0239 84.841 54.1173 83.8343ZM56.4953 83.6198C56.566 84.7821 56.6373 85.9448 56.7093 87.1078C56.7273 87.4078 57.1998 87.4078 57.1793 87.1078C57.109 85.9451 57.0375 84.7825 56.9648 83.6198C56.9473 83.3198 56.4773 83.3198 56.4953 83.6198ZM59.4898 85.3318C59.4353 85.3016 59.3712 85.2936 59.311 85.3094C59.2507 85.3253 59.1989 85.3637 59.1663 85.4168C57.8833 87.1768 57.7013 87.2923 57.9953 87.4668C58.2568 87.6208 58.2868 87.4168 59.5748 85.6528C59.6056 85.5985 59.614 85.5344 59.5981 85.474C59.5822 85.4136 59.5433 85.3619 59.4898 85.3298" fill="#5BBD8F"/>
<path d="M46.6277 53.2047C45.6402 55.4091 45.0936 57.7854 45.0187 60.1997C44.9643 62.16 45.2159 64.1169 45.7647 65.9997C46.6477 69.0752 49.3072 74.4497 52.3087 73.4222C53.7032 72.9432 53.7647 71.1377 53.5707 69.9192C53.0867 66.9132 49.4522 61.6567 54.3167 56.4967C56.6507 54.0147 61.8607 50.9627 61.9167 44.9117C61.7578 44.8458 61.6018 44.7731 61.4492 44.6937C61.5867 53.6652 51.5082 54.1042 51.3652 62.3067C51.2862 66.7067 53.7062 69.0287 53.0917 71.7657C52.8107 73.0157 51.8772 73.3072 50.7572 72.8847C47.8132 71.7742 45.8152 65.6347 45.5402 62.2452C44.7987 52.9237 50.5187 49.4762 51.8202 45.6397C51.0147 45.5802 51.6412 45.3962 50.7397 46.9142C49.4267 49.1252 48.1152 50.1782 46.8587 52.7387C46.3237 52.7527 32.1262 53.0887 32.1147 53.0887C32.2922 52.3887 34.4482 43.8387 34.4897 43.6587C34.5026 43.5996 34.4924 43.5379 34.4612 43.4861C34.4301 43.4344 34.3802 43.3965 34.322 43.3803C34.2638 43.3641 34.2016 43.3709 34.1482 43.3991C34.0947 43.4273 34.0541 43.4749 34.0347 43.5322C29.4732 61.6822 30.4637 58.5772 29.1527 61.0682C26.4653 59.7709 23.4502 59.3109 20.4983 59.7478C17.5463 60.1846 14.7937 61.4982 12.5972 63.5182C1.31321 73.6047 10.0697 91.8767 24.2972 90.5072C31.2147 89.8387 37.1902 84.4242 38.0837 77.4517C38.8217 71.6357 36.1137 65.1612 29.5697 61.2897C30.7402 59.0082 30.3622 60.2007 31.6367 55.0042L31.9977 53.5687C44.7077 53.2787 46.3012 53.2117 46.6302 53.2047H46.6277ZM34.1857 65.7582C41.3917 74.7722 36.9387 86.9307 26.5202 89.6297C12.8387 93.1707 2.06021 76.5122 11.3702 65.4382C15.7202 60.2587 22.9417 58.5077 28.9262 61.4777L27.8402 63.6032C25.6637 62.5849 23.2337 62.236 20.8586 62.6009C18.4834 62.9658 16.2702 64.028 14.4997 65.6527C5.29172 73.8692 12.4572 88.7322 23.9997 87.6272C35.6737 86.5067 40.2622 71.0117 28.2682 63.8147C28.6295 63.1073 28.9917 62.3998 29.3547 61.6922C31.2231 62.7092 32.8677 64.092 34.1902 65.7582H34.1857ZM22.6902 74.7242C22.9047 74.3027 27.8627 64.6067 28.0512 64.2372C29.7823 65.1776 31.2787 66.4965 32.429 68.0958C33.5793 69.6951 34.3538 71.5334 34.6947 73.4737C36.7542 85.3637 20.7447 92.6557 13.1162 82.1372C5.72122 71.9172 16.8707 58.9272 27.6282 64.0232C27.3562 64.5467 22.3042 74.4382 22.2782 74.4892C22.1492 74.7567 22.5542 74.9942 22.6922 74.7242H22.6902ZM88.3137 75.0677C87.8637 62.9967 74.4492 54.8922 63.9492 62.5177C64.0432 62.6437 64.1342 62.7702 64.2282 62.8992C70.4587 58.3602 79.0242 59.1337 84.3182 65.7557C91.5052 74.7462 87.0682 86.9317 76.6527 89.6272C66.2712 92.3147 56.3717 82.9917 58.2917 72.3207L60.6417 72.7342C60.1437 75.5252 60.5944 78.4025 61.9217 80.9077C68.2912 92.8757 85.8487 87.6207 85.4527 75.0652C85.0742 65.2117 74.1622 58.6592 65.6417 64.8367C65.7357 64.9632 65.8267 65.0867 65.9207 65.2187C74.0587 59.3117 84.6207 65.5602 84.9857 75.0652C85.3547 86.0932 70.4822 92.1202 63.2432 82.1347C62.2793 80.8047 61.5935 79.2939 61.2268 77.6928C60.86 76.0917 60.8199 74.4331 61.1087 72.8162C61.4242 72.8717 70.4912 74.4662 70.9407 74.5487C73.1047 74.9352 72.4277 74.7897 72.5497 74.8302C72.8462 74.8832 72.9722 74.4302 72.6757 74.3752C72.5352 74.3522 71.3137 74.1347 71.0082 74.0817C70.9842 74.0782 61.6172 72.4267 61.2027 72.3557C61.6138 70.4848 62.4715 68.7411 63.7027 67.2737C65.5527 65.0782 65.8027 65.8407 65.2642 65.1157C62.9648 66.8999 61.3615 69.4317 60.7317 72.2732L58.3817 71.8592C58.8777 69.4943 59.9486 67.288 61.4997 65.4352C63.8282 62.6597 64.1622 63.5887 63.5722 62.7957C60.6791 65.0224 58.6728 68.206 57.9122 71.7767C57.6717 71.7327 55.3727 71.3312 55.3522 71.3267C55.0552 71.2737 54.9292 71.7267 55.2257 71.7817C55.6282 71.8512 57.7622 72.2267 57.8212 72.2367C55.3342 86.5177 72.2837 96.5917 83.4157 86.4727C85.0143 85.0442 86.2811 83.2833 87.127 81.3135C87.973 79.3436 88.3777 77.2125 88.3127 75.0697L88.3137 75.0677ZM57.8897 12.9802C58.5032 13.5617 61.0427 15.8842 62.3757 15.8162C63.8992 15.7372 63.0712 13.8937 63.0712 13.8937C67.2402 15.1237 68.7872 11.6767 68.3882 10.2587C67.9892 8.84067 67.1882 9.64517 67.1882 9.64517C66.6047 10.4172 65.764 10.9547 64.8184 11.1604C63.8728 11.3661 62.8847 11.2264 62.0332 10.7667C59.3027 9.43667 57.5057 10.5057 57.0127 10.8697C57.6542 11.1397 58.0517 12.3322 57.8907 12.9802H57.8897ZM45.6237 15.1497C45.6237 15.1497 45.1947 16.1712 45.7877 16.7322C45.3942 18.3947 45.1242 20.5167 46.0877 21.9322C46.9912 23.2642 48.9272 23.7607 50.5377 23.6792C50.5216 24.2933 50.5393 24.9079 50.5907 25.5202C50.6214 26.0302 50.704 26.5359 50.8372 27.0292C50.8457 27.0612 50.8577 27.0937 50.8662 27.1257C51.2342 28.2592 51.9012 28.2637 52.9362 27.6457C52.9478 27.6362 52.9606 27.6283 52.9742 27.6222C53.0037 27.403 53.047 27.1859 53.1037 26.9722C52.8392 27.1777 52.0537 27.6857 51.7382 27.5802C51.7382 27.5802 51.6882 27.5662 51.6882 27.5652C50.9882 27.1767 50.9882 24.2477 51.0247 23.4377C51.0472 22.9582 50.3682 23.4807 48.5437 22.9972C45.7117 22.2472 45.5827 19.8412 46.2242 16.9817C46.3055 16.5967 46.4105 16.2172 46.5387 15.8452C46.5635 15.8718 46.5942 15.8923 46.6283 15.905C46.6624 15.9177 46.6991 15.9223 46.7353 15.9183C46.7715 15.9143 46.8062 15.9019 46.8368 15.8821C46.8673 15.8623 46.8928 15.8356 46.9112 15.8042C47.0227 15.608 47.1919 15.4509 47.3957 15.3542C47.5007 15.3082 47.8202 15.2572 47.7392 15.0042C47.6202 14.6467 47.0847 14.9502 46.8262 15.1747C48.0842 12.8322 51.5917 13.3127 52.7422 14.9982C53.3291 16.0289 53.6641 17.1838 53.7197 18.3687C53.7462 18.6747 53.6697 19.0767 54.0017 18.9687C55.7152 18.4052 56.3352 19.0977 55.9542 19.6762C55.7152 19.9378 55.3856 20.0987 55.0322 20.1262C53.8137 20.3642 53.9527 19.5212 54.3322 22.7392C54.446 23.5383 54.5166 24.343 54.5437 25.1497C54.5302 25.2432 54.4937 25.2162 54.7082 25.1527C55.1142 25.0172 55.1512 25.6727 54.6407 21.4152C56.9442 21.5897 58.6652 17.3542 57.2092 13.5117C55.1092 7.93467 46.3592 9.59867 44.7027 13.4827C43.3027 16.7237 45.6277 15.1472 45.6277 15.1472" fill="#1D1D1B"/>
<path d="M14.3103 57.1853C14.8288 57.4533 14.3903 57.3613 25.5343 57.3293C27.0723 57.3233 30.1463 57.3148 30.0728 57.3148C30.1351 57.3148 30.1949 57.29 30.239 57.246C30.283 57.2019 30.3078 57.1421 30.3078 57.0798C30.3078 57.0175 30.283 56.9577 30.239 56.9136C30.1949 56.8696 30.1351 56.8448 30.0728 56.8448C13.8688 56.8948 14.9293 56.9293 14.6508 56.8273C13.8323 56.5273 13.9508 55.7503 14.0053 55.1743C14.4528 50.9603 14.3263 51.6513 14.5188 51.6513C17.3968 51.6688 30.9023 51.7133 30.8718 51.7133C30.9322 51.7105 30.9892 51.6846 31.0309 51.6408C31.0726 51.5971 31.0959 51.539 31.0959 51.4786C31.0959 51.4181 31.0726 51.36 31.0309 51.3163C30.9892 51.2725 30.9322 51.2466 30.8718 51.2438C28.8833 51.2438 14.2718 51.1808 14.5188 51.1818C14.3993 51.1818 14.3938 51.4928 14.6188 49.4643C15.7798 49.4713 32.0148 49.5173 31.6688 49.5173C31.7311 49.5173 31.7909 49.4925 31.835 49.4485C31.879 49.4044 31.9038 49.3446 31.9038 49.2823C31.9038 49.22 31.879 49.1602 31.835 49.1161C31.7909 49.0721 31.7311 49.0473 31.6688 49.0473C26.8233 49.0473 14.9828 48.9818 14.6688 48.9918C14.8091 47.6648 14.9509 46.3378 15.0943 45.0108C15.2828 43.2768 16.2103 44.1208 33.1118 44.1208C33.1722 44.118 33.2292 44.0921 33.2709 44.0483C33.3127 44.0046 33.3359 43.9465 33.3359 43.8861C33.3359 43.8256 33.3127 43.7675 33.2709 43.7238C33.2292 43.68 33.1722 43.6541 33.1118 43.6513C14.0118 43.4163 14.8773 42.7083 14.5453 45.6978C13.3623 56.7248 13.4898 55.5228 13.4768 55.6678C13.4533 55.9744 13.5197 56.2811 13.6677 56.5506C13.8157 56.8201 14.039 57.0406 14.3103 57.1853ZM55.2503 75.9838C54.3203 75.1653 50.2378 72.9713 46.5603 73.7203C43.7933 74.2833 42.2003 75.1528 44.9423 75.8603C46.7643 76.3283 55.8823 78.4298 55.7258 76.5533C55.6963 76.2123 55.4998 76.2033 55.2503 75.9838ZM19.6948 68.8703C19.6388 68.7853 19.5833 68.7003 19.5303 68.6148C19.3658 68.3648 18.9578 68.5973 19.1253 68.8528C19.7198 69.7673 20.3918 70.8028 20.4493 70.8933C20.6138 71.1433 21.0218 70.9108 20.8543 70.6553C20.4698 70.0593 20.0823 69.4663 19.6948 68.8703ZM77.3343 68.8353C76.7703 69.6743 76.2075 70.514 75.6458 71.3543C75.4758 71.6043 75.8843 71.8413 76.0513 71.5918C76.6153 70.7518 77.1781 69.9111 77.7398 69.0698C77.9098 68.8198 77.5013 68.5828 77.3343 68.8353ZM72.3933 79.2928C72.3363 81.0903 71.5733 81.5263 71.9678 81.7613C72.4933 82.0613 72.8433 80.0063 72.8678 79.2928C72.8768 78.9903 72.4038 78.9903 72.3953 79.2928H72.3933ZM75.9103 76.5418C75.8663 76.5551 75.8271 76.5809 75.7974 76.616C75.7678 76.6511 75.7488 76.694 75.743 76.7396C75.7371 76.7852 75.7445 76.8315 75.7644 76.873C75.7842 76.9144 75.8156 76.9493 75.8548 76.9733C76.9873 77.4653 77.0608 78.0903 77.3433 77.7778C77.3863 77.7332 77.4103 77.6737 77.4103 77.6118C77.4103 77.5499 77.3863 77.4904 77.3433 77.4458C76.9483 77.0283 76.1233 76.4853 75.9103 76.5418ZM25.7503 80.6198C25.7828 80.6719 25.8344 80.7093 25.8941 80.7241C25.9537 80.7388 26.0168 80.7298 26.0699 80.6988C26.123 80.6679 26.162 80.6175 26.1786 80.5583C26.1952 80.4991 26.1881 80.4358 26.1588 80.3818C24.5813 78.0738 24.5428 77.8578 24.2738 78.0128C24.2207 78.0451 24.1821 78.0968 24.1663 78.1569C24.1504 78.2171 24.1585 78.281 24.1888 78.3353C24.7114 79.096 25.2319 79.8575 25.7503 80.6198ZM19.5243 77.5398C19.0078 78.0243 18.4883 78.5088 17.9713 78.9928C17.9305 79.0375 17.9085 79.0961 17.9099 79.1566C17.9112 79.2171 17.9359 79.2747 17.9786 79.3175C18.0214 79.3602 18.079 79.3849 18.1395 79.3862C18.1999 79.3876 18.2586 79.3656 18.3033 79.3248C19.8808 77.8468 20.0903 77.7658 19.8563 77.5398C19.8114 77.4975 19.752 77.4739 19.6903 77.4739C19.6286 77.4739 19.5692 77.4975 19.5243 77.5398Z" fill="#1D1D1B"/>
<path d="M40.2591 39.7773C40.1108 39.4484 39.9119 39.1447 39.6696 38.8773C38.581 38.6709 37.4594 38.7211 36.3936 39.0238C33.7436 40.0268 33.6831 42.7823 35.1806 41.8073C35.4143 41.653 35.6165 41.4557 35.7766 41.2258C35.9176 41.0113 36.2991 41.1468 36.2081 41.4078C35.6236 43.0603 36.6981 42.7933 37.5411 41.5488C37.6761 41.3488 37.9956 41.4078 37.9696 41.7688C37.8926 42.6908 38.3346 42.7003 39.1001 42.1418C39.9606 41.5158 39.5131 41.5138 40.2501 41.5138H40.4321C40.4591 40.9297 40.4009 40.3447 40.2591 39.7773Z" fill="#FFCEB6"/>
<path d="M50.5794 17.1491C50.4706 17.1607 50.37 17.2121 50.2969 17.2934C50.2238 17.3748 50.1834 17.4803 50.1834 17.5896C50.1834 17.699 50.2238 17.8045 50.2969 17.8858C50.37 17.9671 50.4706 18.0185 50.5794 18.0301C51.1094 18.0301 51.1049 17.1491 50.5794 17.1491ZM47.4794 17.2691C47.4794 17.2166 47.469 17.1646 47.4489 17.116C47.4288 17.0675 47.3994 17.0234 47.3622 16.9863C47.3251 16.9491 47.281 16.9197 47.2325 16.8996C47.1839 16.8795 47.1319 16.8691 47.0794 16.8691C47.0269 16.8691 46.9748 16.8795 46.9263 16.8996C46.8778 16.9197 46.8337 16.9491 46.7965 16.9863C46.7594 17.0234 46.7299 17.0675 46.7098 17.116C46.6897 17.1646 46.6794 17.2166 46.6794 17.2691C46.6794 17.3216 46.6897 17.3736 46.7098 17.4222C46.7299 17.4707 46.7594 17.5148 46.7965 17.5519C46.8337 17.5891 46.8778 17.6186 46.9263 17.6387C46.9748 17.6588 47.0269 17.6691 47.0794 17.6691C47.1319 17.6691 47.1839 17.6588 47.2325 17.6387C47.281 17.6186 47.3251 17.5891 47.3622 17.5519C47.3994 17.5148 47.4288 17.4707 47.4489 17.4222C47.469 17.3736 47.4794 17.3216 47.4794 17.2691ZM52.3029 16.3386C51.8974 15.3436 50.8594 15.1186 50.8819 15.5721C50.8929 15.8036 51.0649 15.7821 51.2819 15.8656C51.5409 15.9895 51.7447 16.2051 51.8539 16.4706C51.8714 16.5303 51.9119 16.5806 51.9665 16.6104C52.021 16.6402 52.0852 16.6471 52.1449 16.6296C52.2046 16.6121 52.2548 16.5716 52.2846 16.517C52.3145 16.4625 52.3214 16.3983 52.3039 16.3386H52.3029ZM50.2274 19.2276C49.1689 20.1166 48.1699 19.9651 47.7814 19.5776C47.5554 19.3751 47.2239 19.7071 47.4499 19.9096C48.0289 20.4271 49.0964 20.5881 50.2209 19.8186C50.2488 20.0485 50.2049 20.2814 50.0951 20.4854C49.9854 20.6893 49.8152 20.8543 49.6079 20.9576C49.3379 21.0926 49.5754 21.5006 49.8454 21.3626C51.0764 20.7446 50.7899 18.7521 50.2274 19.2286" fill="#1D1D1B"/>
<path d="M71.0776 34.5441C69.2136 32.4586 67.3181 33.3602 63.6496 31.0037C59.2666 25.0506 53.6436 22.7952 52.9746 27.6127C52.7611 29.1832 53.6246 25.1177 56.3891 25.6897C56.2199 25.6099 56.0453 25.5422 55.8666 25.4871C58.5331 25.7081 61.6431 29.1177 63.2476 31.2327C63.2467 31.4668 63.2309 31.7006 63.2001 31.9327C62.0261 30.6747 58.7001 27.2327 57.4536 26.2951C57.8686 26.7055 58.1848 27.205 58.3781 27.7557C60.2021 29.4557 61.5481 30.8942 63.1036 32.5142C62.8003 33.7421 62.2332 34.8892 61.4416 35.8757C60.4788 37.0891 59.357 38.1674 58.1066 39.0817C56.5531 36.5317 57.0376 36.6372 56.5006 37.1882C56.7701 37.6982 57.5236 39.0582 57.7166 39.3662C57.4311 39.5662 57.1936 39.7277 57.0061 39.8452C56.508 39.2472 56.0984 38.5807 55.7901 37.8662C55.6666 37.9717 55.5436 38.0747 55.4146 38.1747C55.743 38.9418 56.1995 39.6475 56.7646 40.2617C58.1191 41.8992 59.9711 44.1206 61.9146 44.9116C67.0546 47.0917 75.1486 39.1037 71.0776 34.5452V34.5441ZM67.4636 40.7837C67.4299 40.797 67.3936 40.8022 67.3576 40.7987C67.178 41.3038 66.8585 41.7475 66.4365 42.078C66.0144 42.4086 65.507 42.6124 64.9736 42.6657C63.4966 42.8227 62.2201 41.9507 61.0806 40.9982C61.0556 40.9725 61.0367 40.9415 61.0254 40.9075C61.014 40.8735 61.0105 40.8374 61.015 40.8018C61.0195 40.7663 61.032 40.7322 61.0515 40.7021C61.071 40.6721 61.097 40.6468 61.1276 40.6282C63.3711 39.5897 63.4056 39.5412 63.7116 39.5097C63.3466 38.8996 62.6326 36.7652 63.2946 37.0317C63.9106 37.2341 64.5447 37.3768 65.1881 37.4577C64.9674 36.5886 65.0175 35.6729 65.3316 34.8332C65.4846 34.6507 65.7486 34.8332 65.7251 35.0332C65.7716 35.0603 65.8197 35.0846 65.8691 35.1061C69.8121 37.0781 69.2691 40.0847 67.4636 40.7812" fill="#86F2AA"/>
<path d="M33.2782 42.8208C33.8382 43.3898 35.4572 43.7353 36.1782 43.0113C36.6912 43.0888 37.1862 42.6698 37.5372 42.2893C37.8227 43.5393 39.0872 42.8863 40.0007 41.9753H40.4822C40.4978 42.0225 40.5282 42.0634 40.5689 42.092C40.6096 42.1205 40.6585 42.1352 40.7082 42.1338C49.4207 41.7898 59.0852 39.4458 58.9582 30.7248C58.8917 25.4793 55.3817 24.4333 53.6582 26.7793C53.6667 26.7448 53.6792 26.7233 53.6522 26.7908C51.2602 30.1408 51.5187 34.0068 47.5522 35.9153C44.9927 37.1558 39.4497 38.0498 39.4317 38.3698C37.5122 38.1588 35.4002 38.5738 34.2767 40.1873C33.6202 39.7128 32.6267 40.2528 32.7472 41.5758C32.7783 42.0389 32.9655 42.4777 33.2782 42.8208ZM43.3782 37.7828C46.7852 36.8553 49.1587 36.2438 50.7822 33.6328C52.6322 30.6428 53.4952 25.3538 56.2692 26.1553C58.3192 26.7648 58.6647 29.9278 58.4272 32.0503C57.5882 39.4668 48.4337 41.3398 41.0112 41.6498C41.0364 41.4094 41.0336 41.167 41.0027 40.9273C40.6157 37.5593 38.2182 39.1808 43.3807 37.7833L43.3782 37.7828ZM34.4702 40.7623C35.9357 38.2158 39.7202 38.8703 39.6702 38.8748C40.2837 39.4883 40.4422 40.6403 40.4337 41.5053H40.2497C39.5147 41.5053 39.9052 41.5618 39.0997 42.1338C38.8852 42.2893 38.3307 42.7118 38.0782 42.4123C37.8832 42.1823 37.9997 41.5248 37.9722 41.7228C37.9853 41.6681 37.9785 41.6106 37.9532 41.5604C37.9278 41.5103 37.8855 41.4707 37.8337 41.4488C37.782 41.4269 37.7241 41.4241 37.6705 41.4408C37.6168 41.4576 37.5708 41.4928 37.5407 41.5403C37.416 41.7233 37.2746 41.8944 37.1182 42.0513C36.3182 42.8743 35.7547 42.7268 36.2077 41.4013C36.2987 41.1398 35.9172 41.0048 35.7762 41.2193C34.9787 42.4328 33.6762 42.1453 34.4697 40.7638L34.4702 40.7623ZM33.2397 41.0518C33.3587 40.5283 33.7932 40.3848 34.0002 40.5673C34.0557 40.6093 34.0457 40.5433 33.9647 40.7173C33.3062 42.1048 34.4367 43.0108 35.5827 42.1173C35.5611 42.3472 35.6169 42.5777 35.7412 42.7723C35.0507 43.2723 32.8292 42.8388 33.2412 41.0518" fill="#1D1D1B"/>
</svg>
