<svg width="100" height="100" viewBox="0 0 100 100" fill="none" xmlns="http://www.w3.org/2000/svg">
<path d="M43.5466 61.301C43.49 61.049 43.4917 60.7875 43.5516 60.5365C44.0176 58.474 43.9471 55.4305 44.4126 52.956C44.8781 50.4815 46.4126 50.76 48.1091 50.167C49.1921 49.787 50.2056 49.203 51.3591 48.667C52.0461 48.3389 52.7576 48.0637 53.4866 47.844C55.6466 47.208 61.0686 49.494 63.6946 49.9145C64.3151 50.013 64.9266 50.162 65.5231 50.3595L65.5351 50.3235C65.5351 50.3235 77.5111 42.1145 80.6421 39.8665C83.7731 37.6185 90.2006 33.054 90.2006 33.054L97.5211 49.914C97.5211 49.914 83.1481 59.414 81.0211 61.287C78.8941 63.16 74.2161 65.5405 74.2161 65.5405L74.1781 65.5315C73.8926 66.8395 72.9426 68.3315 70.3236 69.8105L70.1656 69.8655C69.7321 68.868 69.1841 67.925 68.5326 67.0545C65.9206 62.2495 55.2676 55.1295 54.3466 55.2825C53.4256 55.4355 50.8821 55.7705 50.8821 55.7705C50.6951 56.3325 49.9131 56.647 49.9131 56.647H49.8461C49.8588 58.347 49.2749 59.9975 48.1961 61.311C46.4921 63.461 43.8971 62.851 43.5466 61.301Z" fill="#FFE8BB"/>
<path d="M73.1774 19.0068C73.3449 19.7734 73.4094 20.5588 73.3699 21.3423C73.3619 21.4795 73.3249 21.6134 73.2614 21.7353C73.1984 21.8573 73.1099 21.9645 73.0024 22.0501C72.8949 22.1356 72.7709 22.1976 72.6379 22.2319C72.5044 22.2663 72.3659 22.2722 72.2304 22.2493L68.6714 21.6618C68.4534 21.6269 68.2534 21.5188 68.1054 21.3552C67.9569 21.1916 67.8684 20.9823 67.8549 20.7618C67.8409 20.1761 67.6294 19.6123 67.2549 19.1618C67.1019 18.9841 66.9304 18.8233 66.7429 18.6823L65.7189 24.8878L67.1814 25.7728C69.1934 26.9588 70.4864 28.3348 71.0599 29.9008C71.6334 31.4651 71.7859 33.1527 71.5009 34.7943C71.3204 35.9502 70.9104 37.0583 70.2944 38.0528C69.7074 39.0003 68.9499 39.8309 68.0604 40.5028C67.1604 41.1766 66.1314 41.659 65.0379 41.9203C64.3279 42.0945 63.5984 42.1748 62.8674 42.1593L62.3774 45.1308C62.3504 45.2955 62.2909 45.4531 62.2029 45.5948C62.1144 45.7364 61.9994 45.8594 61.8639 45.9565C61.7279 46.0537 61.5744 46.1231 61.4119 46.161C61.2494 46.1988 61.0814 46.2043 60.9164 46.1771C60.7519 46.1499 60.5944 46.0905 60.4529 46.0024C60.3109 45.9142 60.1879 45.7991 60.0909 45.6634C59.9939 45.5278 59.9244 45.3743 59.8864 45.2118C59.8489 45.0493 59.8434 44.881 59.8704 44.7163L60.3549 41.7813C58.6069 41.3168 57.0609 40.2872 55.9589 38.8528C55.4224 38.1754 55.0019 37.4135 54.7149 36.5983C54.6269 36.3558 54.5479 36.1068 54.4794 35.8483C54.2999 35.1758 54.2044 34.4838 54.1939 33.7878C54.1889 33.5617 54.2334 33.3373 54.3249 33.1304C54.4164 32.9235 54.5519 32.7393 54.7229 32.5909C54.8934 32.4424 55.0944 32.3334 55.3124 32.2715C55.5299 32.2096 55.7584 32.1964 55.9814 32.2328L57.4849 32.4828L58.5519 32.6583C58.8679 32.7117 59.1594 32.8621 59.3859 33.0889C59.6124 33.3156 59.7624 33.6073 59.8154 33.9233C59.8899 34.3608 60.0169 34.7877 60.1934 35.1948C60.4034 35.6758 60.7849 36.0612 61.2639 36.2758L62.4189 29.2758L61.1424 28.5508C59.5589 27.6877 58.2524 26.3944 57.3724 24.8203C56.5444 23.2387 56.2809 21.4221 56.6249 19.6703C56.8054 18.5121 57.2259 17.4042 57.8584 16.4173C58.4609 15.4775 59.2464 14.6686 60.1684 14.0388C61.0489 13.4088 62.0514 12.9703 63.1119 12.7518C63.7899 12.6103 64.4824 12.5498 65.1744 12.5713L65.6054 9.9578C65.6604 9.6253 65.8449 9.3282 66.1189 9.1319C66.2544 9.0347 66.4079 8.9652 66.5704 8.9273C66.7329 8.8894 66.9014 8.8839 67.0659 8.91105C67.2309 8.93825 67.3884 8.9976 67.5304 9.0857C67.6719 9.17385 67.7949 9.289 67.8919 9.42465C67.9894 9.5603 68.0589 9.71375 68.0969 9.8763C68.1344 10.0388 68.1399 10.2072 68.1129 10.3718L67.6834 12.9788C68.3709 13.1849 69.0284 13.4808 69.6389 13.8588C70.5459 14.4155 71.3244 15.1582 71.9229 16.0378C72.5269 16.9382 72.9529 17.9461 73.1774 19.0068ZM66.0509 34.0108C66.1904 33.2861 66.0894 32.5356 65.7639 31.8733C65.5139 31.4189 65.1699 31.0228 64.7549 30.7113L63.7964 36.5163C64.1069 36.4291 64.4049 36.302 64.6829 36.1383C65.0594 35.9132 65.3789 35.604 65.6164 35.235C65.8534 34.8659 66.0024 34.4469 66.0509 34.0108ZM63.3784 23.4508L64.2634 18.0908C63.8444 18.1631 63.4529 18.3479 63.1309 18.6253C62.5574 19.1036 62.1779 19.7745 62.0639 20.5123C61.9774 21.0558 62.0249 21.6121 62.2029 22.1328C62.4484 22.6837 62.8589 23.1444 63.3784 23.4508Z" fill="#55DEFF"/>
<path d="M43.5465 61.3006C43.8965 62.8506 46.492 63.4591 48.1935 61.3111C49.2723 59.9976 49.8562 58.3471 49.8435 56.6471H49.9105C49.9105 56.6471 50.6925 56.3326 50.8795 55.7706C50.8795 55.7706 53.421 55.4356 54.344 55.2826C55.267 55.1296 65.918 62.2496 68.53 67.0546C69.1815 67.9251 69.7295 68.8681 70.163 69.8656C70.4465 70.5981 70.5545 71.2956 70.213 71.6996C69.0355 73.0996 67.5955 72.6876 66.585 71.5241C66.535 71.4676 66.485 71.4071 66.435 71.3456C65.419 70.0481 62.812 66.8806 62.812 66.8806L60.6365 65.5306C61.144 66.0056 61.6205 66.5121 62.063 67.0481C62.6455 67.8421 64.9365 70.1811 65.9655 71.7846C66.23 72.1316 66.404 72.5391 66.471 72.9701C66.4495 73.2851 66.353 73.5911 66.1895 73.8616C66.0265 74.1321 65.801 74.3596 65.5325 74.5261C65.2635 74.6921 64.959 74.7916 64.644 74.8166C64.329 74.8421 64.0125 74.7916 63.721 74.6701C63.685 74.6551 63.65 74.6366 63.6175 74.6151C62.7465 74.0756 58.459 70.2296 57.7935 69.6026C57.6605 69.3556 57.4775 69.1386 57.256 68.9666C57.122 68.8586 56.9795 68.7621 56.8295 68.6781L56.823 68.6726C55.6955 68.0316 54.4615 68.2726 53.396 69.1056C52.2205 70.0286 52.736 69.4836 52.2275 70.0131C52.184 69.5966 52.006 69.2061 51.7205 68.8996C50.667 67.7171 49.239 67.6586 47.895 68.3821C46.8577 68.9781 45.8569 69.6361 44.898 70.3516L40.9865 70.7261L40.9525 70.7196C41.0482 70.0236 40.8974 69.3161 40.526 68.7196C39.676 67.4376 38.4005 67.5696 37.7285 67.6096C37.6183 67.6171 37.5093 67.6366 37.4035 67.6681L37.395 67.6096C36.8742 67.3531 36.3698 67.0651 35.8845 66.7466C35.2485 66.3496 34.558 65.8926 34.006 65.5216C33.398 65.1126 32.9615 64.8101 32.9615 64.8101C33.0026 59.8516 33.3635 54.9016 34.042 49.9896L34.924 50.3316C36.3535 50.8866 39.055 51.9316 39.4005 52.0536C39.5658 52.1406 39.7499 52.1861 39.9368 52.1861C40.1236 52.1861 40.3077 52.1406 40.473 52.0536C40.9625 51.8681 46.7195 48.8366 47.883 48.5601C49.0465 48.2836 51.356 48.6646 51.356 48.6646C50.201 49.2026 49.1875 49.7866 48.106 50.1646C46.4115 50.7576 44.8735 50.4771 44.4095 52.9536C43.9455 55.4301 44.0145 58.4716 43.5485 60.5341C43.4894 60.7861 43.4887 61.0481 43.5465 61.3006Z" fill="#FFE8BB"/>
<path d="M66.441 71.3452C66.491 71.4067 66.541 71.4672 66.591 71.5237C66.591 71.5237 65.986 71.8037 65.974 71.7852C64.945 70.1817 62.654 67.8427 62.0715 67.0487C61.629 66.5132 61.1525 66.0062 60.645 65.5312L62.8205 66.8812C62.8205 66.8812 65.425 70.0477 66.441 71.3452Z" fill="#FFE8BB"/>
<path d="M63.6233 74.6147L63.5048 74.7882C63.4603 75.0217 63.3618 75.2412 63.2178 75.4297C63.0733 75.6187 62.8868 75.7707 62.6733 75.8747C62.3698 76.0652 62.0303 76.1907 61.6758 76.2437C61.3213 76.2962 60.9598 76.2747 60.6143 76.1802C60.3043 76.0302 60.0053 75.8582 59.7193 75.6667L59.2618 75.6167C59.4928 75.4032 59.6973 75.1622 59.8703 74.8997C60.5203 73.8037 60.4978 73.1247 59.7808 72.5542C59.5113 72.2992 59.1798 72.1197 58.8193 72.0332C58.4583 71.9467 58.0813 71.9562 57.7258 72.0612L57.6498 72.0147C57.6883 71.9507 57.7218 71.8837 57.7498 71.8147C57.9208 71.4727 58.0143 71.0972 58.0228 70.7152C58.0313 70.3332 57.9553 69.9537 57.7998 69.6047C58.4648 70.2292 62.7503 74.0752 63.6233 74.6147Z" fill="#FFE8BB"/>
<path d="M60.6144 76.1808C60.0059 76.9348 59.1739 77.4763 58.2379 77.7278C58.0409 77.7988 57.8309 77.8258 57.6224 77.8078C57.4134 77.7893 57.2114 77.7258 57.0299 77.6213L56.7959 77.6178C57.6599 77.0048 58.4839 76.3368 59.2619 75.6178L59.7194 75.6678C60.0054 75.8593 60.3044 76.0308 60.6144 76.1808Z" fill="#FFE8BB"/>
<path d="M59.781 72.5511C60.498 73.1216 60.5185 73.8011 59.8705 74.8966C59.6975 75.1591 59.493 75.4001 59.262 75.6136C58.484 76.3326 57.66 77.0006 56.796 77.6136C56.509 77.8216 56.3255 77.9486 56.3255 77.9486C53.4965 79.6106 52.242 79.9796 51.23 79.5036C50.9165 79.3786 50.6355 79.1836 50.4075 78.9346C50.18 78.6851 50.0115 78.3871 49.9155 78.0636L49.8655 77.9501C51.001 77.4526 52.1015 76.8781 53.1585 76.2301C53.1585 76.2301 56.8585 73.3516 57.6485 72.0096L57.7245 72.0561C58.0805 71.9511 58.458 71.9416 58.819 72.0286C59.18 72.1156 59.5115 72.2956 59.781 72.5511Z" fill="#FFE8BB"/>
<path d="M57.8007 69.601C57.9562 69.95 58.0322 70.3295 58.0237 70.7115C58.0152 71.094 57.9217 71.469 57.7507 71.811C57.7227 71.88 57.6892 71.947 57.6507 72.011C56.8602 73.353 53.1607 76.2315 53.1607 76.2315C52.1037 76.8795 51.0032 77.454 49.8677 77.9515C47.5177 78.9295 46.9707 78.3515 46.1267 77.955C45.3225 77.5305 44.7185 76.805 44.4462 75.9375V75.9135C45.145 75.861 45.8272 75.6745 46.4552 75.3635C46.4552 75.3635 51.0402 72.9135 51.7292 71.784C52.0882 71.2645 52.2662 70.6415 52.2362 70.0105C52.7447 69.481 52.2292 70.026 53.4047 69.103C54.4702 68.2695 55.7047 68.029 56.8317 68.67L56.8382 68.6755C56.9882 68.7595 57.1307 68.856 57.2647 68.964C57.4857 69.1365 57.6687 69.3535 57.8007 69.601Z" fill="#FFE8BB"/>
<path d="M44.9008 70.3505C45.8609 69.635 46.8627 68.9775 47.9008 68.381C49.2448 67.6575 50.6728 67.716 51.7263 68.8985C52.0118 69.205 52.1898 69.5955 52.2333 70.012C52.2633 70.6425 52.0853 71.266 51.7263 71.7855C51.0373 72.9145 46.4523 75.365 46.4523 75.365C45.8243 75.676 45.1421 75.8625 44.4433 75.915C43.1147 75.959 41.7884 75.773 40.5233 75.365C39.1438 75.0075 38.4853 72.4265 38.4853 72.4265C39.0134 72.3405 39.5278 72.1845 40.0148 71.9625C40.2637 71.851 40.4804 71.6785 40.6451 71.461C40.8097 71.2435 40.9169 70.9885 40.9568 70.7185L40.9908 70.725L44.9008 70.3505Z" fill="#FFE8BB"/>
<path d="M50.7214 7.62L51.0459 9.19099L31.7079 13.176L36.9509 38.622L35.3784 38.945L35.0539 37.3725L29.8124 11.9285L49.1489 7.9435L50.7214 7.62Z" fill="#55DEFF"/>
<path d="M49.1486 7.94317L29.8121 11.9282L35.0536 37.3722L33.4811 37.6972L27.9146 10.6787L48.8256 6.37067L49.1486 7.94317Z" fill="#313553"/>
<path d="M37.4086 67.6673C37.5144 67.6358 37.6234 67.6163 37.7336 67.6088C38.4056 67.5708 39.6786 67.4368 40.5311 68.7188C40.9024 69.3153 41.0533 70.0228 40.9576 70.7188C40.9177 70.9888 40.8105 71.2438 40.6459 71.4613C40.4812 71.6788 40.2645 71.8513 40.0156 71.9628C39.5286 72.1848 39.0142 72.3408 38.4861 72.4268C37.3126 72.6243 36.0921 72.5178 35.5561 71.9903C34.6561 71.1018 33.6881 69.0603 35.7901 66.9038L35.8901 66.7453C36.3753 67.0638 36.8798 67.3518 37.4006 67.6083L37.4086 67.6673Z" fill="#FFE8BB"/>
<path d="M34.6274 49.1269L34.6084 49.1424C34.5898 49.1175 34.5659 49.097 34.5385 49.0825C34.5111 49.0679 34.4808 49.0596 34.4498 49.0581C34.4188 49.0566 34.3878 49.062 34.3591 49.0739C34.3304 49.0858 34.3047 49.1039 34.2839 49.1269C34.1518 49.3971 34.0713 49.6896 34.0464 49.9894C33.3679 54.9014 33.0069 59.8514 32.9659 64.8099C32.9879 65.9524 33.0789 66.7054 33.2629 66.8069C33.3776 66.8864 33.5191 66.9169 33.6564 66.8924L33.6634 66.9149C33.1514 67.2554 31.7849 67.4269 31.4134 66.3464C31.3216 65.4704 31.3148 64.5874 31.3929 63.7099C31.5699 59.4599 32.2624 51.4599 32.6429 49.2679C32.6632 49.0771 32.7107 48.8902 32.7839 48.7129C33.1944 48.1749 34.5794 48.4844 34.6274 49.1269Z" fill="#55DEFF"/>
<path d="M32.5506 49.2509L32.6451 49.2684C32.2636 51.4629 31.5711 59.4624 31.3951 63.7104H31.3451C31.3451 63.7104 28.3826 62.3804 26.8771 62.2014C24.6946 61.9439 2.52106 51.6464 2.52106 51.6464L11.0051 35.1214L31.1716 48.5649L32.5506 49.2509Z" fill="#FFE8BB"/>
<path d="M90.1988 33.054L97.5193 49.914" stroke="#FFE8BB" stroke-width="0.258738" stroke-linecap="round" stroke-linejoin="round"/>
<path d="M2.5191 51.6444L11.0051 35.1214" stroke="#FFE8BB" stroke-width="0.258738" stroke-linecap="round" stroke-linejoin="round"/>
<path d="M72.7156 87.2724C67.4136 90.7739 61.2861 92.8244 54.9446 93.2199C48.603 93.6149 42.2685 92.3409 36.5728 89.5249C30.877 86.7089 26.0189 82.4489 22.4828 77.1699C18.9467 71.8904 16.8562 65.7769 16.4196 59.4379" stroke="#313553" stroke-width="0.258738" stroke-linecap="round" stroke-linejoin="round"/>
<path d="M89.0001 58.0424C88.8496 63.229 87.5876 68.3229 85.3001 72.9799C83.0121 77.6374 79.7516 81.7495 75.7386 85.0385" stroke="#313553" stroke-width="0.258738" stroke-linecap="round" stroke-linejoin="round"/>
<path d="M68.6606 81.4826C64.7031 84.0966 60.1646 85.6996 55.4431 86.1506C50.7216 86.6021 45.9617 85.8876 41.5806 84.0706C37.1996 82.2531 33.3314 79.3891 30.3154 75.7286C27.2994 72.0681 25.2277 67.7231 24.2821 63.0756" stroke="#313553" stroke-width="0.258738" stroke-linecap="round" stroke-linejoin="round"/>
<path d="M81.1574 62.7005C79.8929 69.3745 76.3229 75.392 71.0714 79.7005" stroke="#313553" stroke-width="0.258738" stroke-linecap="round" stroke-linejoin="round"/>
<path d="M72.1642 35.965C73.8797 37.5129 75.4042 39.2597 76.7062 41.1685" stroke="#313553" stroke-width="0.258738" stroke-linecap="round" stroke-linejoin="round"/>
<path d="M26.7964 44.4236C28.1334 41.7382 29.8777 39.2757 31.9674 37.1236" stroke="#313553" stroke-width="0.258738" stroke-linecap="round" stroke-linejoin="round"/>
<path d="M70.453 25.2469C75.0265 27.8199 78.9925 31.3477 82.0805 35.5904" stroke="#313553" stroke-width="0.258738" stroke-linecap="round" stroke-linejoin="round"/>
<path d="M20.5583 39.9346C22.8829 35.5606 26.0735 31.7055 29.9358 28.6041" stroke="#313553" stroke-width="0.258738" stroke-linecap="round" stroke-linejoin="round"/>
<path d="M65.5366 50.323C65.5366 50.323 77.5126 42.114 80.6436 39.866C83.7746 37.618 90.2006 33.054 90.2006 33.054" stroke="#313553" stroke-width="0.258738" stroke-linecap="round" stroke-linejoin="round"/>
<path d="M74.2146 65.5402C74.2146 65.5402 78.8921 63.1582 81.0196 61.2867C83.1471 59.4152 97.5196 49.9137 97.5196 49.9137" stroke="#313553" stroke-width="0.258738" stroke-linecap="round" stroke-linejoin="round"/>
<path d="M2.5191 51.6438C2.5191 51.6438 24.6931 61.9438 26.8756 62.1988C28.3811 62.3778 31.3436 63.7078 31.3436 63.7078" stroke="#313553" stroke-width="0.258738" stroke-linecap="round" stroke-linejoin="round"/>
<path d="M32.5512 49.2504L31.1712 48.5649L11.0047 35.1214" stroke="#313553" stroke-width="0.258738" stroke-linecap="round" stroke-linejoin="round"/>
<path d="M34.9456 50.2868C34.9162 49.8856 34.8013 49.4954 34.6086 49.1423C34.59 49.1174 34.5661 49.0969 34.5387 49.0824C34.5113 49.0678 34.481 49.0595 34.45 49.058C34.419 49.0565 34.388 49.0619 34.3593 49.0738C34.3306 49.0857 34.3049 49.1038 34.2841 49.1268C34.152 49.397 34.0715 49.6895 34.0466 49.9893C33.3681 54.9013 33.0071 59.8513 32.9661 64.8098C32.9881 65.9523 33.0791 66.7053 33.2631 66.8068C33.3778 66.8863 33.5193 66.9168 33.6566 66.8923C34.1066 66.7758 33.9611 65.6673 33.9611 65.6673" stroke="#313553" stroke-width="0.258738" stroke-linecap="round" stroke-linejoin="round"/>
<path d="M34.6276 49.1273C34.5776 48.4848 33.1946 48.1773 32.7871 48.7133C32.7139 48.8907 32.6665 49.0776 32.6461 49.2683C32.2646 51.4628 31.5721 59.4623 31.3961 63.7103C31.318 64.5878 31.3249 65.4708 31.4166 66.3468C31.7861 67.4273 33.1526 67.2558 33.6666 66.9153" stroke="#313553" stroke-width="0.258738" stroke-linecap="round" stroke-linejoin="round"/>
<path d="M34.0471 49.9896L34.9291 50.3316C36.3586 50.8866 39.0601 51.9316 39.4056 52.0536C39.5709 52.1406 39.7549 52.1861 39.9418 52.1861C40.1287 52.1861 40.3128 52.1406 40.4781 52.0536C40.9676 51.8681 46.7246 48.8366 47.8881 48.5601C49.0516 48.2836 51.3611 48.6646 51.3611 48.6646" stroke="#313553" stroke-width="0.258738" stroke-linecap="round" stroke-linejoin="round"/>
<path d="M32.9661 64.8097C32.9661 64.8097 33.4026 65.1122 34.0106 65.5212C34.5606 65.8922 35.2531 66.3492 35.8891 66.7462C36.3743 67.0647 36.8788 67.3527 37.3996 67.6092" stroke="#313553" stroke-width="0.258738" stroke-linecap="round" stroke-linejoin="round"/>
<path d="M74.043 62.2628C74.043 62.9883 74.4775 64.1568 74.177 65.5313C73.8915 66.8393 72.9415 68.3313 70.3225 69.8108" stroke="#313553" stroke-width="0.258738" stroke-linecap="round" stroke-linejoin="round"/>
<path d="M67.8889 51.4854C67.1589 50.9984 66.3624 50.6184 65.5244 50.3579C64.9279 50.1604 64.3164 50.0119 63.6959 49.9129C61.0699 49.4934 55.6459 47.2064 53.4879 47.8424C52.7589 48.0621 52.0474 48.3373 51.3604 48.6654C50.2054 49.2034 49.1919 49.7874 48.1104 50.1654C46.4159 50.7584 44.8779 50.4779 44.4139 52.9544C43.9499 55.4309 44.0189 58.4724 43.5529 60.5349C43.4931 60.7859 43.4913 61.0474 43.5479 61.2994C43.8979 62.8494 46.4934 63.4579 48.1949 61.3099C49.2737 59.9964 49.8576 58.3459 49.8449 56.6459C49.8415 56.1664 49.7873 55.6889 49.6834 55.2209" stroke="#313553" stroke-width="0.258738" stroke-linecap="round" stroke-linejoin="round"/>
<path d="M49.9119 56.6471C49.9119 56.6471 50.6939 56.3326 50.8809 55.7706C50.8809 55.7706 53.4224 55.4356 54.3454 55.2826C55.2684 55.1296 65.9194 62.2496 68.5314 67.0546" stroke="#313553" stroke-width="0.258738" stroke-linecap="round" stroke-linejoin="round"/>
<path d="M68.5313 67.0539C69.1828 67.9244 69.7308 68.8674 70.1643 69.8649C70.4478 70.5974 70.5558 71.2949 70.2143 71.6989C69.0368 73.0989 67.5968 72.6869 66.5863 71.5234C66.5363 71.4669 66.4863 71.4064 66.4363 71.3449C65.4203 70.0474 62.8133 66.8799 62.8133 66.8799L60.6378 65.5299" stroke="#313553" stroke-width="0.258738" stroke-linecap="round" stroke-linejoin="round"/>
<path d="M56.8357 60.9188C56.8802 61.3818 56.9962 61.8348 57.1797 62.2623C57.3222 62.4273 59.2227 64.1408 60.6422 65.5308C61.1497 66.0058 61.6262 66.5123 62.0687 67.0483C62.6512 67.8423 64.9422 70.1813 65.9712 71.7848C66.2357 72.1318 66.4097 72.5393 66.4767 72.9703C66.4552 73.2853 66.3587 73.5913 66.1952 73.8618C66.0322 74.1323 65.8067 74.3598 65.5382 74.5263C65.2692 74.6923 64.9647 74.7918 64.6497 74.8168C64.3347 74.8423 64.0182 74.7918 63.7267 74.6703C63.6907 74.6553 63.6557 74.6368 63.6232 74.6153C62.7522 74.0758 58.4647 70.2298 57.7992 69.6028L57.7962 69.5993" stroke="#313553" stroke-width="0.258738" stroke-linecap="round" stroke-linejoin="round"/>
<path d="M63.5054 74.7892C63.4609 75.0227 63.3624 75.2422 63.2184 75.4307C63.0739 75.6197 62.8874 75.7717 62.6739 75.8757C62.3704 76.0662 62.0309 76.1917 61.6764 76.2447C61.3219 76.2972 60.9604 76.2757 60.6149 76.1812C60.3049 76.0312 60.0059 75.8592 59.7199 75.6677" stroke="#313553" stroke-width="0.258738" stroke-linecap="round" stroke-linejoin="round"/>
<path d="M60.6146 76.1808C60.0061 76.9348 59.1741 77.4763 58.2381 77.7278C58.0411 77.7988 57.8311 77.8258 57.6226 77.8078C57.4136 77.7893 57.2116 77.7258 57.0301 77.6213" stroke="#313553" stroke-width="0.258738" stroke-linecap="round" stroke-linejoin="round"/>
<path d="M54.3448 55.2826C54.3448 55.2826 55.1218 54.5126 55.1218 54.0746" stroke="#313553" stroke-width="0.258738" stroke-linecap="round" stroke-linejoin="round"/>
<path d="M50.8813 55.7704C50.9503 55.4094 50.9503 55.0384 50.8813 54.6774" stroke="#313553" stroke-width="0.258738" stroke-linecap="round" stroke-linejoin="round"/>
<path d="M43.5074 61.1409C43.5071 61.1974 43.5207 61.2524 43.5469 61.3024C43.8579 61.9314 46.0389 61.7285 46.7384 60.6805C47.4924 59.548 46.5714 58.0424 46.5714 58.0424" stroke="#313553" stroke-width="0.258738" stroke-linecap="round" stroke-linejoin="round"/>
<path d="M43.9712 57.6326C43.9712 57.6326 44.5312 57.5896 45.2712 57.5036" stroke="#313553" stroke-width="0.258738" stroke-linecap="round" stroke-linejoin="round"/>
<path d="M68.2825 71.7846C68.794 71.6336 69.264 71.3666 69.6555 71.0041" stroke="#313553" stroke-width="0.258738" stroke-linecap="round" stroke-linejoin="round"/>
<path d="M66.5881 71.5234C66.5881 71.5234 65.9831 71.8034 65.9711 71.7849" stroke="#313553" stroke-width="0.258738" stroke-linecap="round" stroke-linejoin="round"/>
<path d="M36.2161 68.3004C36.5771 68.0274 36.9797 67.8144 37.4086 67.6699C37.5144 67.6384 37.6234 67.6189 37.7336 67.6114C38.4056 67.5734 39.6786 67.4394 40.5311 68.7214C40.9024 69.3179 41.0533 70.0254 40.9576 70.7214C40.9177 70.9914 40.8105 71.2464 40.6459 71.4639C40.4812 71.6814 40.2645 71.8539 40.0156 71.9654C39.5286 72.1874 39.0142 72.3434 38.4861 72.4294C37.3126 72.6269 36.0921 72.5204 35.5561 71.9929C34.6561 71.1044 33.6881 69.0629 35.7901 66.9064" stroke="#313553" stroke-width="0.258738" stroke-linecap="round" stroke-linejoin="round"/>
<path d="M44.9001 70.351C44.5031 70.64 44.1731 70.8855 43.9686 71.037" stroke="#313553" stroke-width="0.258738" stroke-linecap="round" stroke-linejoin="round"/>
<path d="M38.4859 72.4278C38.4859 72.4278 39.1444 75.0088 40.5239 75.3663C41.7891 75.7743 43.1153 75.9603 44.4439 75.9163C45.1428 75.8638 45.8249 75.6773 46.4529 75.3663C46.4529 75.3663 51.0379 72.9163 51.7269 71.7868C52.0859 71.2673 52.2639 70.6438 52.2339 70.0133C52.1904 69.5968 52.0124 69.2063 51.7269 68.8998C50.6734 67.7173 49.2454 67.6588 47.9014 68.3823C46.8641 68.9783 45.8633 69.6363 44.9044 70.3518" stroke="#313553" stroke-width="0.258738" stroke-linecap="round" stroke-linejoin="round"/>
<path d="M44.9034 70.3524H44.9019L40.9904 70.7269" stroke="#313553" stroke-width="0.258738" stroke-linecap="round" stroke-linejoin="round"/>
<path d="M47.9935 70.1456C47.6678 70.5306 47.4905 71.0191 47.4935 71.5236C47.5178 71.7356 47.5938 71.9386 47.7149 72.1146C47.836 72.2906 47.9985 72.4341 48.188 72.5326C48.3776 72.6311 48.5884 72.6816 48.802 72.6796C49.0156 72.6776 49.2255 72.6226 49.413 72.5206C50.3015 72.0291 51.7245 71.0341 51.333 70.1456" stroke="#313553" stroke-width="0.258738" stroke-linecap="round" stroke-linejoin="round"/>
<path d="M48.6045 69.6006C48.915 69.3251 49.2936 69.1381 49.701 69.0591C49.9875 69.0466 50.268 69.1431 50.4865 69.3291" stroke="#313553" stroke-width="0.258738" stroke-linecap="round" stroke-linejoin="round"/>
<path d="M56.8284 68.6731C55.7009 68.0321 54.4669 68.2731 53.4014 69.1061C52.2259 70.0291 52.7414 69.4841 52.2329 70.0136C52.2224 70.0241 52.2124 70.0361 52.2004 70.0481" stroke="#313553" stroke-width="0.258738" stroke-linecap="round" stroke-linejoin="round"/>
<path d="M44.4455 75.9406C44.7178 76.8081 45.3218 77.5336 46.126 77.9581C46.97 78.3551 47.5195 78.9326 49.867 77.9546C51.0025 77.4571 52.103 76.8826 53.16 76.2346C53.16 76.2346 56.86 73.3561 57.65 72.0141C57.6885 71.9501 57.722 71.8831 57.75 71.8141C57.921 71.4721 58.0145 71.0971 58.023 70.7146C58.0315 70.3326 57.9555 69.9531 57.8 69.6041C57.667 69.3571 57.484 69.1401 57.2625 68.9681C57.1285 68.8601 56.986 68.7636 56.836 68.6796" stroke="#313553" stroke-width="0.258738" stroke-linecap="round" stroke-linejoin="round"/>
<path d="M53.7919 70.8274C53.5379 71.2629 53.4469 71.7744 53.5359 72.2709C53.5959 72.4759 53.7054 72.6629 53.8544 72.8154C54.0039 72.9684 54.1884 73.0819 54.3919 73.1469C54.5949 73.2114 54.8114 73.2254 55.0214 73.1874C55.2314 73.1489 55.4289 73.0599 55.5964 72.9274C56.3904 72.2919 57.6224 71.0699 57.0864 70.2604" stroke="#313553" stroke-width="0.258738" stroke-linecap="round" stroke-linejoin="round"/>
<path d="M54.3005 70.1848C54.5595 69.8613 54.901 69.6133 55.2885 69.4663C55.569 69.4053 55.8625 69.4528 56.11 69.5988" stroke="#313553" stroke-width="0.258738" stroke-linecap="round" stroke-linejoin="round"/>
<path d="M49.9158 78.0675C50.0118 78.391 50.1803 78.689 50.4078 78.938C50.6358 79.1875 50.9168 79.382 51.2303 79.5075C52.2423 79.9835 53.4968 79.614 56.3258 77.9525C56.3258 77.9525 56.5093 77.8255 56.7963 77.6175C57.6603 77.0045 58.4843 76.3365 59.2623 75.6175C59.4933 75.404 59.6978 75.163 59.8708 74.9005C60.5208 73.8045 60.4983 73.1255 59.7813 72.555C59.5118 72.3 59.1803 72.1205 58.8198 72.034C58.4588 71.9475 58.0818 71.957 57.7263 72.062" stroke="#313553" stroke-width="0.258738" stroke-linecap="round" stroke-linejoin="round"/>
<path d="M56.956 73.7301C56.7595 74.0666 56.6895 74.4621 56.7585 74.8456C56.8045 75.0041 56.8895 75.1491 57.0045 75.2676C57.12 75.3861 57.263 75.4741 57.4205 75.5246C57.578 75.5746 57.7455 75.5856 57.908 75.5556C58.0705 75.5261 58.2235 75.4566 58.353 75.3541C58.9665 74.8626 59.9205 73.9176 59.503 73.2901" stroke="#313553" stroke-width="0.258738" stroke-linecap="round" stroke-linejoin="round"/>
<path d="M57.3504 73.2323C57.5514 72.9818 57.8164 72.7898 58.1169 72.6768C58.3339 72.6293 58.5604 72.6663 58.7509 72.7803" stroke="#313553" stroke-width="0.258738" stroke-linecap="round" stroke-linejoin="round"/>
<path d="M55.1225 66.4961L55.698 67.5941L56.829 68.6731L56.8355 68.6786" stroke="#313553" stroke-width="0.258738" stroke-linecap="round" stroke-linejoin="round"/>
<path d="M40.0149 71.9628C39.5156 71.7338 39.0602 71.4193 38.6694 71.0333C38.4038 70.6873 38.2199 70.2863 38.1314 69.8593C38.1126 69.7628 38.069 69.6728 38.005 69.5983C37.9409 69.5238 37.8586 69.4673 37.766 69.4343C37.6735 69.4008 37.5739 69.3928 37.4771 69.4098C37.3803 69.4268 37.2896 69.4688 37.2139 69.5313C36.9733 69.7093 36.8048 69.9678 36.7394 70.2598C36.6636 70.5953 36.7027 70.9463 36.8504 71.2563C36.9981 71.5668 37.2459 71.8188 37.5539 71.9713" stroke="#313553" stroke-width="0.258738" stroke-linecap="round" stroke-linejoin="round"/>
<path d="M54.7011 36.6019L37.2736 40.1919L36.9506 38.6214L31.7076 13.1754L51.0456 9.19037L52.6166 8.86737L57.4831 32.4794" stroke="#313553" stroke-width="0.258738" stroke-linecap="round" stroke-linejoin="round"/>
<path d="M36.9509 38.622L35.3784 38.945L35.0539 37.3725L29.8124 11.9285L49.1489 7.9435L50.7214 7.62L51.0459 9.19099V9.19249" stroke="#313553" stroke-width="0.258738" stroke-linecap="round" stroke-linejoin="round"/>
<path d="M35.0536 37.3722L33.4811 37.6972L27.9146 10.6787L48.8256 6.37067L49.1486 7.94317" stroke="#313553" stroke-width="0.258738" stroke-linecap="round" stroke-linejoin="round"/>
<path d="M35.7753 16.0853L50.0318 13.1483" stroke="#313553" stroke-width="0.258738" stroke-linecap="round" stroke-linejoin="round"/>
<path d="M37.2086 19.0681L51.4656 16.1291" stroke="#313553" stroke-width="0.258738" stroke-linecap="round" stroke-linejoin="round"/>
<path d="M35.9605 20.9647L51.7895 17.7027" stroke="#313553" stroke-width="0.258738" stroke-linecap="round" stroke-linejoin="round"/>
<path d="M36.2835 22.5358L52.1125 19.2743" stroke="#313553" stroke-width="0.258738" stroke-linecap="round" stroke-linejoin="round"/>
<path d="M36.609 24.1091L47.721 21.8186" stroke="#313553" stroke-width="0.258738" stroke-linecap="round" stroke-linejoin="round"/>
<path d="M38.5042 25.3564L52.7607 22.4194" stroke="#313553" stroke-width="0.258738" stroke-linecap="round" stroke-linejoin="round"/>
<path d="M37.2568 27.2523L53.0858 23.9923" stroke="#313553" stroke-width="0.258738" stroke-linecap="round" stroke-linejoin="round"/>
<path d="M37.5798 28.8241L53.4088 25.5626" stroke="#313553" stroke-width="0.258738" stroke-linecap="round" stroke-linejoin="round"/>
<path d="M39.4756 30.074L53.7341 27.1355" stroke="#313553" stroke-width="0.258738" stroke-linecap="round" stroke-linejoin="round"/>
<path d="M38.2276 31.9693L54.0566 28.7078" stroke="#313553" stroke-width="0.258738" stroke-linecap="round" stroke-linejoin="round"/>
<path d="M38.5518 33.5416L54.3808 30.2801" stroke="#313553" stroke-width="0.258738" stroke-linecap="round" stroke-linejoin="round"/>
<path d="M43.6059 36.5975L45.2199 36.266L47.1374 35.8705L51.1209 35.049L51.8774 34.8925L53.1474 34.6315" stroke="#313553" stroke-width="0.258738" stroke-linecap="round" stroke-linejoin="round"/>
<path d="M48.3005 34.1725C48.2505 34.355 47.941 35.503 48.3675 35.515C48.828 35.5285 49.878 32.8805 49.878 32.8805C49.878 32.8805 49.364 35.0305 49.986 35.075C50.608 35.1195 50.5175 33.5455 51.057 33.3995C51.4365 33.296 51.122 34.42 51.122 35.0495C51.122 35.3195 51.1805 35.4995 51.375 35.4495C51.617 35.3895 51.763 35.161 51.8785 34.8925C52.0675 34.4425 52.1755 33.882 52.5125 33.798" stroke="#313553" stroke-width="0.258738" stroke-linecap="round" stroke-linejoin="round"/>
<path d="M46.3002 34.9455C46.5202 35.48 46.8502 35.8955 47.1282 35.8305C47.7607 35.6775 48.2317 34.3665 48.2987 34.172C48.3 34.1662 48.3016 34.1605 48.3037 34.155V34.15" stroke="#313553" stroke-width="0.258738" stroke-linecap="round" stroke-linejoin="round"/>
<path d="M46.3005 34.9456C46.8105 33.9831 47.0925 32.8541 46.4825 33.0106C45.8905 33.1636 45.985 34.1756 46.3005 34.9456Z" stroke="#313553" stroke-width="0.258738" stroke-linecap="round" stroke-linejoin="round"/>
<path d="M45.2081 36.2083C45.5501 36.1158 45.9726 35.5658 46.3011 34.9453" stroke="#313553" stroke-width="0.258738" stroke-linecap="round" stroke-linejoin="round"/>
<path d="M42.621 34.7254L41.8305 35.9264L41.04 37.1259" stroke="#313553" stroke-width="0.258738" stroke-linecap="round" stroke-linejoin="round"/>
<path d="M40.6284 35.1364L41.8299 35.9269L43.0294 36.7159" stroke="#313553" stroke-width="0.258738" stroke-linecap="round" stroke-linejoin="round"/>
<path d="M54.7134 36.5975C55.0004 37.4126 55.4209 38.1745 55.9574 38.852C57.0599 40.286 58.6054 41.3155 60.3534 41.7805L59.8689 44.7155C59.8419 44.8801 59.8474 45.0484 59.8849 45.2109C59.9229 45.3734 59.9924 45.5269 60.0894 45.6625C60.1864 45.7982 60.3094 45.9133 60.4514 46.0015C60.5929 46.0896 60.7504 46.149 60.9149 46.1762C61.0799 46.2034 61.2479 46.1979 61.4104 46.1601C61.5729 46.1222 61.7264 46.0528 61.8624 45.9556C61.9979 45.8585 62.1129 45.7355 62.2014 45.5939C62.2894 45.4522 62.3489 45.2946 62.3759 45.13L62.8659 42.1585C63.5969 42.1739 64.3264 42.0936 65.0364 41.9195C66.1299 41.6578 67.1589 41.1751 68.0589 40.501C68.9484 39.829 69.7059 38.9984 70.2929 38.0509C70.9089 37.057 71.3194 35.9497 71.5004 34.7944C71.7849 33.1526 71.6329 31.4648 71.0589 29.9005C70.4849 28.3338 69.1919 26.9578 67.1804 25.7724L65.7179 24.8874L66.7419 18.6819C66.9294 18.8229 67.1009 18.9837 67.2539 19.1614C67.6284 19.612 67.8399 20.1757 67.8539 20.7615C67.8674 20.9819 67.9559 21.1912 68.1044 21.3548C68.2524 21.5184 68.4524 21.6265 68.6704 21.6614L72.2294 22.2489C72.3649 22.2718 72.5034 22.2659 72.6369 22.2315C72.7699 22.1972 72.8939 22.1352 73.0014 22.0497C73.1089 21.9641 73.1974 21.8569 73.2604 21.7349C73.3239 21.613 73.3609 21.4791 73.3689 21.3419C73.4084 20.5584 73.3439 19.773 73.1764 19.0065C72.9514 17.9467 72.5259 16.9399 71.9219 16.0404C71.3234 15.1608 70.5449 14.4181 69.6379 13.8615C69.0274 13.4834 68.3699 13.1875 67.6824 12.9815L68.1119 10.3745C68.1389 10.2098 68.1334 10.0414 68.0959 9.87892C68.0579 9.71637 67.9884 9.56292 67.8909 9.42727C67.7939 9.29162 67.6709 9.17647 67.5294 9.08837C67.3874 9.00022 67.2299 8.94087 67.0649 8.91372C66.9004 8.88652 66.7319 8.89202 66.5694 8.92992C66.4069 8.96782 66.2534 9.03732 66.1179 9.13452C65.8439 9.33082 65.6594 9.62792 65.6044 9.96047L65.1734 12.574C64.4814 12.5524 63.7889 12.6129 63.1109 12.7545C62.0504 12.9729 61.0479 13.4114 60.1674 14.0414C59.2454 14.6712 58.4599 15.4801 57.8574 16.42C57.2249 17.4068 56.8044 18.5147 56.6239 19.673C56.2799 21.4247 56.5434 23.2413 57.3714 24.823C58.2514 26.397 59.5579 27.6903 61.1414 28.5534L62.4169 29.2769L61.2619 36.277C60.7829 36.0623 60.4014 35.6769 60.1914 35.1959C60.0149 34.7887 59.8879 34.3616 59.8134 33.924C59.7604 33.608 59.6104 33.3164 59.3839 33.0898C59.1574 32.8631 58.8659 32.7127 58.5499 32.6595L57.4829 32.484L55.9794 32.234C55.7564 32.1975 55.5279 32.2107 55.3104 32.2726C55.0924 32.3345 54.8914 32.4435 54.7209 32.592C54.5499 32.7404 54.4144 32.9246 54.3229 33.1315C54.2314 33.3384 54.1869 33.5628 54.1919 33.7889C54.2024 34.4849 54.2979 35.1769 54.4774 35.8494C54.5464 36.1059 54.6254 36.355 54.7134 36.5975Z" stroke="#313553" stroke-width="0.258738" stroke-linecap="round" stroke-linejoin="round"/>
<path d="M62.2005 22.1341C62.0225 21.6134 61.975 21.057 62.0615 20.5136C62.1755 19.7758 62.555 19.1049 63.1285 18.6266C63.4505 18.3491 63.842 18.1644 64.261 18.0921L63.376 23.4521C62.8565 23.1457 62.446 22.685 62.2005 22.1341Z" stroke="#313553" stroke-width="0.258738" stroke-linecap="round" stroke-linejoin="round"/>
<path d="M64.6838 36.1383C64.4058 36.302 64.1078 36.429 63.7973 36.5163L64.7558 30.7113C65.1708 31.0227 65.5148 31.4188 65.7648 31.8733C66.0903 32.5356 66.1913 33.286 66.0518 34.0108C66.0033 34.4469 65.8543 34.8658 65.6173 35.2349C65.3798 35.604 65.0603 35.9131 64.6838 36.1383Z" stroke="#313553" stroke-width="0.258738" stroke-linecap="round" stroke-linejoin="round"/>
</svg>
