<svg width="112" height="32" viewBox="0 0 112 32" fill="none" xmlns="http://www.w3.org/2000/svg">
<path d="M25.5271 25.9744L19.5953 25.8658C17.6747 25.8281 15.7494 25.9036 13.8665 25.5119C11.0021 24.9268 10.7992 22.0576 10.5869 19.651C10.2943 16.2675 10.4075 12.8226 10.9597 9.46746C11.2711 7.58459 12.498 6.46148 14.3951 6.33879C20.7987 5.8952 27.2448 5.94711 33.6342 6.15475C34.309 6.17362 34.9886 6.27744 35.654 6.39541C38.9383 6.97113 39.0186 10.2225 39.2309 12.9595C39.4433 15.7248 39.3536 18.5043 38.9478 21.2507C38.6222 23.5252 37.9993 25.4317 35.3708 25.6157C32.077 25.8564 28.8587 26.0499 25.5554 25.9885C25.5554 25.9744 25.5365 25.9744 25.5271 25.9744ZM22.0398 20.2172C24.5219 18.7921 26.9569 17.3906 29.4249 15.9749C26.938 14.5498 24.5078 13.1482 22.0398 11.7326V20.2172Z" fill="#FF0000"/>
<path d="M86.9632 23.3882C86.8499 23.8506 86.7508 24.214 86.6517 24.6009H84.33V6.69249H87.0387V13.299C87.1803 13.1197 87.251 13.0442 87.3124 12.964C87.7749 12.3269 88.3742 11.9117 89.1481 11.7512C90.3797 11.5105 91.432 12.0532 91.8048 13.2377C92.0455 13.9738 92.2012 14.7619 92.2201 15.5311C92.2579 17.5083 92.2296 19.4809 92.1588 21.4581C92.1305 22.0621 91.9464 22.6803 91.7152 23.2466C90.9554 25.1153 88.4733 25.3984 87.2416 23.7798C87.1661 23.6807 87.0953 23.5722 86.9632 23.3882ZM87.0953 21.7365C87.0953 22.2698 87.3785 22.5954 87.9117 22.7181C88.4355 22.8408 88.8602 22.6378 89.0726 22.1518C89.1622 21.9489 89.2519 21.7365 89.2566 21.5242C89.3085 19.5233 89.3557 17.5225 89.3699 15.5169C89.3699 15.1441 89.2802 14.7572 89.1669 14.3938C88.9546 13.7379 88.3694 13.5444 87.7937 13.9266C87.3596 14.2192 87.0953 14.6345 87.0953 15.1866V21.7365ZM79.7337 12.006H82.5698V24.6104H80.3567C80.2764 24.1338 80.1962 23.643 80.1018 23.0673C79.9508 23.2891 79.8612 23.4306 79.7668 23.5722C79.0306 24.634 77.9877 24.9973 76.7561 24.8038C75.7038 24.634 75.0714 23.8223 74.9299 22.4916C74.8874 22.0952 74.8685 21.6941 74.8685 21.2977C74.8591 18.3483 74.8685 15.3895 74.8685 12.4402V11.9966H77.7376V12.511C77.7376 15.3612 77.7282 18.2067 77.7471 21.057C77.7471 21.4628 77.7895 21.8828 77.8603 22.2886C77.9405 22.7039 78.2426 22.8549 78.6484 22.8266C79.3043 22.7747 79.7573 22.2886 79.7573 21.6374V12.5629C79.7337 12.3788 79.7337 12.2089 79.7337 12.006ZM60.2067 11.9966H63.0569V12.5298C63.0569 15.3659 63.0475 18.1973 63.0664 21.024C63.0664 21.4298 63.1041 21.8498 63.1891 22.2462C63.2976 22.7133 63.5713 22.8644 64.0385 22.803C64.685 22.7133 65.0767 22.265 65.0814 21.6091V12.0155H67.9175V24.6104H65.7137C65.6335 24.1432 65.5533 23.6619 65.4495 23.0531C65.3079 23.2655 65.2277 23.3882 65.1474 23.5156C64.4113 24.5962 63.3778 24.9926 62.1179 24.7991C61.108 24.6481 60.4898 23.9025 60.3011 22.6803C60.2492 22.2981 60.2114 21.9206 60.2114 21.5383C60.202 18.4757 60.202 15.399 60.202 12.3364L60.2067 11.9966ZM58.7438 18.7258C58.7344 19.1505 58.7061 19.5752 58.6825 19.9999C58.5739 21.2741 58.522 23.0814 57.4933 24.0111C56.8374 24.5962 56.0068 24.8086 55.148 24.8369C54.7657 24.8463 54.3788 24.8463 53.9965 24.7944C52.1892 24.5207 51.3492 23.7232 51.0472 21.7365C50.7027 19.4431 50.6744 17.1119 51.0849 14.8185C51.5097 12.4449 52.9725 11.6049 55.2471 11.7606C57.3706 11.9117 58.3191 13.3037 58.5692 15.2857C58.7061 16.423 58.7721 17.5744 58.7438 18.7258ZM55.8558 18.2917C55.8558 17.4847 55.8747 16.6731 55.8464 15.8661C55.8275 15.399 55.7662 14.9271 55.6671 14.4646C55.5538 13.9314 55.214 13.6765 54.7893 13.686C54.3741 13.6954 54.0815 13.9502 53.9305 14.4457C53.8786 14.6298 53.8219 14.8185 53.8219 15.0026C53.8219 16.2673 53.8125 17.5366 53.8031 18.8013C53.7936 19.9811 53.6426 21.2174 54.0154 22.3453C54.1287 22.6897 54.4213 22.8785 54.8035 22.8785C55.1763 22.8785 55.4217 22.6945 55.5585 22.3641C55.6671 22.1093 55.7614 21.8309 55.7614 21.5572C55.7945 20.4718 55.8558 19.3818 55.8558 18.2917ZM46.8851 15.918C47.1352 14.6958 47.3711 13.5019 47.6307 12.3033C47.9563 10.7791 48.3196 9.25488 48.6405 7.72594C48.7208 7.35314 48.8718 7.26348 49.2257 7.27292C49.9854 7.30123 50.7593 7.28236 51.571 7.28236C51.3067 8.25446 51.0472 9.17938 50.7924 10.0901C49.9854 12.9498 49.1785 15.8189 48.381 18.6881C48.3196 18.9099 48.2913 19.1505 48.2913 19.3865C48.2819 20.9532 48.2913 22.5151 48.2913 24.0818V24.5915H45.5213C45.5119 24.4499 45.493 24.3084 45.493 24.1668C45.493 23.2796 45.4222 22.3877 45.5024 21.51C45.7053 19.4006 45.0352 17.4611 44.4926 15.4981C43.7753 12.9026 43.0486 10.2978 42.3313 7.70234C42.2935 7.57965 42.2794 7.44752 42.2416 7.29651H45.0683C45.6629 10.1609 46.2622 13.0253 46.8851 15.918ZM101.082 19.2072H96.3067C96.3586 20.1651 96.3775 21.0759 96.4766 21.9772C96.5474 22.6048 96.8919 22.8738 97.4346 22.8785C98.0008 22.8879 98.3312 22.6048 98.4633 21.9819C98.5058 21.779 98.5341 21.5761 98.553 21.3684C98.5718 21.1844 98.5813 20.9862 98.5954 20.7219C99.4024 20.7644 100.19 20.8116 100.969 20.8446C101.422 22.1895 100.606 23.9167 99.2325 24.4499C98.1518 24.8746 97.0429 24.8746 95.9387 24.549C95.1223 24.3084 94.5135 23.7893 94.2398 22.9918C93.985 22.2462 93.7443 21.4675 93.6924 20.6889C93.5509 18.7683 93.4989 16.8288 93.7915 14.9035C93.8434 14.5826 93.9331 14.2759 94.0322 13.9644C94.4286 12.6808 95.2922 11.8928 96.6276 11.7606C97.3543 11.6899 98.1047 11.7182 98.8219 11.8409C99.9828 12.0438 100.601 12.879 100.87 13.9738C100.993 14.4882 101.082 15.0167 101.101 15.5405C101.106 16.7439 101.082 17.9378 101.082 19.2072ZM98.3689 17.5508C98.3689 16.6023 98.3783 15.7104 98.3595 14.8138C98.3595 14.6015 98.2793 14.3797 98.199 14.1768C98.0386 13.7804 97.7035 13.6718 97.3024 13.6718C96.9013 13.6718 96.6465 13.8747 96.5474 14.2381C96.2454 15.3282 96.3445 16.4419 96.3539 17.5602C97.0759 17.5508 97.7319 17.5508 98.3689 17.5508Z" fill="#282828"/>
<path d="M70.107 9.59462H67.2992V7.32008H75.6801V9.58046H72.8912V24.5915H70.1117L70.107 9.59462Z" fill="#282828"/>
</svg>
