<svg width="85" height="32" viewBox="0 0 85 32" fill="none" xmlns="http://www.w3.org/2000/svg">
<path fill-rule="evenodd" clip-rule="evenodd" d="M61.8265 10.5388C61.5339 10.5386 61.2533 10.6553 61.0463 10.8631C60.8394 11.0708 60.7229 11.3527 60.7228 11.6466C60.7227 11.9406 60.8388 12.2226 61.0455 12.4306C61.2523 12.6385 61.5328 12.7554 61.8254 12.7556C62.1181 12.7556 62.3988 12.6387 62.6059 12.4308C62.8128 12.2228 62.9291 11.9408 62.9291 11.6466C62.9291 11.3525 62.8128 11.0705 62.6059 10.8625C62.3988 10.6546 62.1181 10.5377 61.8254 10.5377L61.8265 10.5388ZM62.5869 13.6089H61.049C61.0193 13.6092 60.9908 13.6213 60.9698 13.6426C60.9487 13.6639 60.9369 13.6927 60.9369 13.7226V20.4665C60.9369 20.5302 60.9868 20.5802 61.049 20.5802H62.588C62.618 20.5802 62.6467 20.5682 62.668 20.5469C62.6892 20.5256 62.7011 20.4967 62.7011 20.4665V13.7226C62.7011 13.6925 62.6892 13.6636 62.668 13.6422C62.6467 13.6209 62.618 13.6089 62.588 13.6089H62.5869ZM66.0074 13.6153V13.4028C66.0074 12.7736 66.2475 12.4931 66.7858 12.4931C67.1064 12.4931 67.3634 12.5568 67.6531 12.6546C67.6701 12.6604 67.6883 12.662 67.7061 12.6593C67.7238 12.6566 67.7407 12.6496 67.7552 12.639C67.7696 12.6283 67.7814 12.6144 67.7894 12.5982C67.7974 12.5821 67.8015 12.5643 67.8012 12.5462V11.2444C67.8011 11.2201 67.7933 11.1964 67.7788 11.1769C67.7643 11.1574 67.7441 11.1431 67.7209 11.136C67.3063 11.0088 66.8746 10.9464 66.441 10.9511C65.0207 10.9511 64.2697 11.7556 64.2697 13.2763V13.6036H63.5303C63.5006 13.6036 63.472 13.6154 63.4507 13.6365C63.4295 13.6576 63.4176 13.6863 63.4171 13.7163V15.0521C63.4171 15.1148 63.468 15.1658 63.5303 15.1658H64.2697V20.4687C64.2697 20.5302 64.3193 20.5813 64.3818 20.5813H65.9207C65.9505 20.5811 65.979 20.5689 66.0001 20.5477C66.021 20.5263 66.0328 20.4975 66.0328 20.4676V15.1647H67.4691L69.6702 20.4676C69.4205 21.0234 69.1751 21.135 68.8398 21.135C68.5681 21.135 68.2824 21.0531 67.9905 20.8926C67.9771 20.8854 67.9623 20.8809 67.9469 20.8794C67.9317 20.8779 67.9163 20.8796 67.9016 20.8842C67.887 20.8892 67.8734 20.8973 67.8619 20.9079C67.8505 20.9185 67.8412 20.9315 67.835 20.9458L67.3136 22.0946C67.3015 22.1205 67.2996 22.1502 67.3086 22.1774C67.3174 22.2047 67.3363 22.2274 67.3612 22.2412C67.906 22.5378 68.3978 22.6642 69.0048 22.6642C70.1408 22.6642 70.769 22.1329 71.3221 20.7014L73.9917 13.7705C73.9987 13.7533 74.0013 13.7346 73.9994 13.7162C73.9975 13.6978 73.991 13.6801 73.9807 13.6647C73.9704 13.6494 73.9564 13.6368 73.94 13.6282C73.9237 13.6196 73.9055 13.6151 73.887 13.6153H72.2857C72.2623 13.6155 72.2397 13.623 72.2208 13.6367C72.2018 13.6504 72.1876 13.6697 72.18 13.6918L70.5384 18.4006L68.7404 13.6886C68.7324 13.6672 68.7182 13.6486 68.6995 13.6355C68.6807 13.6224 68.6585 13.6154 68.6357 13.6153H66.0074ZM60.1089 13.6089H58.4166V11.8693C58.4166 11.8544 58.4136 11.8397 58.4079 11.8259C58.4022 11.8122 58.3939 11.7997 58.3833 11.7893C58.3729 11.7788 58.3604 11.7705 58.3467 11.7649C58.333 11.7593 58.3182 11.7565 58.3034 11.7566H56.7645C56.7349 11.7569 56.7065 11.7689 56.6855 11.7899C56.6646 11.811 56.6526 11.8395 56.6524 11.8693V13.6089H55.9121C55.8973 13.6089 55.8825 13.6119 55.8689 13.6176C55.8552 13.6233 55.8429 13.6317 55.8324 13.6423C55.822 13.6529 55.8137 13.6654 55.8081 13.6792C55.8026 13.693 55.7998 13.7078 55.8 13.7226V15.051C55.8 15.1137 55.8507 15.1647 55.9121 15.1647H56.6524V18.6015C56.6524 19.9915 57.3399 20.695 58.6979 20.695C59.25 20.695 59.7069 20.5813 60.1384 20.3358C60.1559 20.326 60.1703 20.3116 60.1804 20.2943C60.1904 20.2768 60.1957 20.2571 60.1956 20.237V18.9724C60.1958 18.953 60.1911 18.9338 60.1819 18.9168C60.1726 18.8998 60.1592 18.8854 60.1428 18.8752C60.1264 18.8649 60.1076 18.8591 60.0884 18.8582C60.0691 18.8574 60.05 18.8616 60.0327 18.8703C59.7366 19.0202 59.4499 19.0893 59.1294 19.0893C58.6355 19.0893 58.4155 18.865 58.4155 18.3602V15.1647H60.1078C60.1227 15.1648 60.1375 15.162 60.1512 15.1563C60.165 15.1507 60.1775 15.1423 60.1881 15.1317C60.1987 15.1211 60.207 15.1086 60.2127 15.0947C60.2182 15.0808 60.2211 15.066 60.2209 15.051V13.7226C60.2211 13.7078 60.2182 13.693 60.2127 13.6792C60.2071 13.6654 60.199 13.6529 60.1885 13.6423C60.1781 13.6317 60.1657 13.6233 60.152 13.6176C60.1383 13.6119 60.1236 13.6089 60.1089 13.6089ZM51.9955 13.4676C49.9225 13.4676 48.2968 15.0723 48.2968 17.1201C48.2968 19.1466 49.9109 20.7332 51.9702 20.7332C54.0506 20.7332 55.6804 19.135 55.6804 17.0946C55.6804 15.0606 54.0622 13.4676 51.9955 13.4676ZM51.9955 19.1658C50.8924 19.1658 50.0599 18.2752 50.0599 17.0935C50.0599 15.9086 50.8639 15.0489 51.9702 15.0489C53.0807 15.0489 53.9162 15.9394 53.9162 17.1211C53.9162 18.306 53.1093 19.1658 51.9955 19.1658ZM44.5771 13.4676C43.7097 13.4676 42.999 13.8108 42.4131 14.5133V13.7226C42.4131 13.6927 42.4014 13.6639 42.3804 13.6426C42.3593 13.6213 42.3308 13.6092 42.301 13.6089H40.762C40.7323 13.6092 40.7038 13.6213 40.6828 13.6426C40.6617 13.6639 40.6499 13.6927 40.6499 13.7226V22.5112C40.6499 22.5728 40.7007 22.6238 40.762 22.6238H42.301C42.3307 22.6235 42.359 22.6116 42.3799 22.5905C42.401 22.5694 42.4128 22.5409 42.4131 22.5112V19.7376C43.0001 20.3974 43.7108 20.7204 44.5771 20.7204C46.1868 20.7204 47.8167 19.475 47.8167 17.0946C47.8167 14.7141 46.1879 13.4676 44.5771 13.4676ZM46.0282 17.0946C46.0282 18.306 45.2846 19.153 44.2207 19.153C43.1683 19.153 42.3751 18.2678 42.3751 17.0946C42.3751 15.9214 43.1683 15.0361 44.2207 15.0361C45.2677 15.0361 46.0293 15.9012 46.0293 17.0946H46.0282ZM37.1058 15.1711C35.3881 14.7588 35.0825 14.4697 35.0825 13.8629C35.0825 13.289 35.6198 12.9033 36.4194 12.9033C37.1936 12.9033 37.9625 13.1955 38.7674 13.7991C38.7793 13.8081 38.7929 13.8145 38.8074 13.8181C38.8219 13.8217 38.837 13.8223 38.8517 13.8201C38.8665 13.8178 38.8806 13.8126 38.8933 13.8048C38.9061 13.797 38.9172 13.7868 38.926 13.7747L39.7658 12.5855C39.7821 12.5621 39.789 12.5332 39.7851 12.5049C39.7811 12.4765 39.7666 12.4507 39.7446 12.4325C38.7864 11.6589 37.7066 11.2837 36.4447 11.2837C34.5885 11.2837 33.2929 12.4017 33.2929 14.0032C33.2929 15.7194 34.4109 16.3273 36.3432 16.796C37.9868 17.1764 38.265 17.4952 38.265 18.0659C38.265 18.6971 37.7044 19.0893 36.8 19.0893C35.7974 19.0893 34.9799 18.7492 34.0639 17.9543C34.041 17.9347 34.0115 17.9248 33.9814 17.9267C33.9664 17.9278 33.9519 17.932 33.9388 17.9389C33.9255 17.9459 33.9137 17.9554 33.9042 17.967L32.9629 19.0914C32.9438 19.1138 32.9341 19.143 32.9363 19.1724C32.9385 19.2019 32.9523 19.2293 32.9746 19.2487C34.0116 20.1928 35.3626 20.7132 36.762 20.7078C38.761 20.7078 40.0535 19.61 40.0535 17.9118C40.0535 16.4761 39.1999 15.6822 37.1058 15.17V15.1711ZM19.9526 6C17.313 6 14.7815 7.05357 12.9151 8.92893C11.0486 10.8043 10 13.3478 10 16C10 18.6522 11.0486 21.1956 12.9151 23.071C14.7815 24.9464 17.313 26 19.9526 26C22.5922 26 25.1237 24.9464 26.9901 23.071C28.8566 21.1956 29.9052 18.6522 29.9052 16C29.9052 13.3478 28.8566 10.8043 26.9901 8.92893C25.1237 7.05357 22.5922 6 19.9526 6ZM24.5175 20.423C24.475 20.493 24.4194 20.5539 24.3534 20.6023C24.2876 20.6505 24.2128 20.6854 24.1336 20.7046C24.0542 20.7238 23.972 20.7272 23.8913 20.7144C23.8107 20.7016 23.7335 20.673 23.6639 20.6302C21.3265 19.1955 18.3862 18.8714 14.9213 19.6663C14.8419 19.6846 14.7597 19.6869 14.6795 19.6731C14.5992 19.6595 14.5224 19.6299 14.4535 19.5865C14.3845 19.543 14.3248 19.4862 14.2777 19.4196C14.2305 19.3528 14.1969 19.2774 14.1788 19.1977C14.1607 19.1179 14.1584 19.0353 14.172 18.9547C14.1856 18.874 14.215 18.7969 14.2583 18.7276C14.3016 18.6583 14.358 18.5983 14.4244 18.5509C14.4908 18.5036 14.5659 18.4699 14.6452 18.4516C18.4359 17.5802 21.6882 17.9554 24.3112 19.5664C24.6031 19.746 24.6951 20.1297 24.5175 20.423ZM25.7337 17.7003C25.6261 17.8762 25.4535 18.0021 25.2536 18.0503C25.0538 18.0985 24.8431 18.0652 24.6676 17.9575C21.9928 16.305 17.9145 15.8268 14.75 16.7917C14.5574 16.8376 14.3547 16.808 14.1831 16.7089C14.0116 16.6098 13.8841 16.4488 13.8266 16.2585C13.7692 16.0682 13.7861 15.8631 13.8739 15.685C13.9618 15.5068 14.1139 15.369 14.2994 15.2997C17.9145 14.1977 22.4074 14.7322 25.4789 16.628C25.5658 16.6816 25.6414 16.7519 25.7014 16.8348C25.7614 16.9177 25.8046 17.0117 25.8283 17.1114C25.8521 17.2111 25.856 17.3145 25.84 17.4157C25.824 17.517 25.7883 17.614 25.7348 17.7014L25.7337 17.7003ZM25.8407 14.865C22.6317 12.9511 17.3391 12.7747 14.2772 13.7099C14.1597 13.7475 14.0359 13.7614 13.913 13.7505C13.7902 13.7397 13.6707 13.7045 13.5615 13.6468C13.4523 13.5892 13.3556 13.5103 13.277 13.4148C13.1984 13.3193 13.1395 13.2091 13.1037 13.0905C13.0679 12.9719 13.0559 12.8473 13.0684 12.7241C13.0809 12.6008 13.1177 12.4812 13.1766 12.3723C13.2355 12.2634 13.3153 12.1674 13.4115 12.0898C13.5076 12.0122 13.6182 11.9546 13.7367 11.9203C17.2513 10.847 23.096 11.0553 26.7883 13.2572C27.0005 13.3837 27.1542 13.5898 27.2154 13.8302C27.2764 14.0705 27.2399 14.3254 27.114 14.5388C26.9881 14.7521 26.7829 14.9065 26.5438 14.9679C26.3045 15.0293 26.0509 14.9926 25.8385 14.8661" fill="#1CD155"/>
</svg>
